solid base45_tipo3_S
   facet normal -9.961947e-01 -8.715611e-02 -0.000000e+00
      outer loop
         vertex 5.249270e+01 5.600671e+01 1.611746e+02
         vertex 5.249270e+01 5.600671e+01 1.411746e+02
         vertex 5.312056e+01 4.883018e+01 1.411746e+02
      endloop
   endfacet
   facet normal -9.961947e-01 -8.715611e-02 0.000000e+00
      outer loop
         vertex 5.249270e+01 5.600671e+01 1.611746e+02
         vertex 5.312056e+01 4.883018e+01 1.411746e+02
         vertex 5.312056e+01 4.883018e+01 1.611746e+02
      endloop
   endfacet
   facet normal -9.659258e-01 -2.588191e-01 -0.000000e+00
      outer loop
         vertex 5.312056e+01 4.883018e+01 1.611746e+02
         vertex 5.312056e+01 4.883018e+01 1.411746e+02
         vertex 5.498508e+01 4.187171e+01 1.411746e+02
      endloop
   endfacet
   facet normal -9.659258e-01 -2.588191e-01 0.000000e+00
      outer loop
         vertex 5.312056e+01 4.883018e+01 1.611746e+02
         vertex 5.498508e+01 4.187171e+01 1.411746e+02
         vertex 5.498508e+01 4.187171e+01 1.611746e+02
      endloop
   endfacet
   facet normal -9.063080e-01 -4.226179e-01 -0.000000e+00
      outer loop
         vertex 5.498508e+01 4.187171e+01 1.611746e+02
         vertex 5.498508e+01 4.187171e+01 1.411746e+02
         vertex 5.802960e+01 3.534271e+01 1.411746e+02
      endloop
   endfacet
   facet normal -9.063080e-01 -4.226179e-01 0.000000e+00
      outer loop
         vertex 5.498508e+01 4.187171e+01 1.611746e+02
         vertex 5.802960e+01 3.534271e+01 1.411746e+02
         vertex 5.802960e+01 3.534271e+01 1.611746e+02
      endloop
   endfacet
   facet normal -8.191520e-01 -5.735765e-01 -0.000000e+00
      outer loop
         vertex 5.802960e+01 3.534271e+01 1.611746e+02
         vertex 5.802960e+01 3.534271e+01 1.411746e+02
         vertex 6.216161e+01 2.944159e+01 1.411746e+02
      endloop
   endfacet
   facet normal -8.191520e-01 -5.735765e-01 0.000000e+00
      outer loop
         vertex 5.802960e+01 3.534271e+01 1.611746e+02
         vertex 6.216161e+01 2.944159e+01 1.411746e+02
         vertex 6.216161e+01 2.944159e+01 1.611746e+02
      endloop
   endfacet
   facet normal -7.071068e-01 -7.071068e-01 -0.000000e+00
      outer loop
         vertex 6.216161e+01 2.944159e+01 1.611746e+02
         vertex 6.216161e+01 2.944159e+01 1.411746e+02
         vertex 6.725557e+01 2.434763e+01 1.411746e+02
      endloop
   endfacet
   facet normal -7.071068e-01 -7.071068e-01 0.000000e+00
      outer loop
         vertex 6.216161e+01 2.944159e+01 1.611746e+02
         vertex 6.725557e+01 2.434763e+01 1.411746e+02
         vertex 6.725557e+01 2.434763e+01 1.611746e+02
      endloop
   endfacet
   facet normal -5.735765e-01 -8.191520e-01 -0.000000e+00
      outer loop
         vertex 6.725557e+01 2.434763e+01 1.611746e+02
         vertex 6.725557e+01 2.434763e+01 1.411746e+02
         vertex 7.315670e+01 2.021562e+01 1.411746e+02
      endloop
   endfacet
   facet normal -5.735765e-01 -8.191520e-01 0.000000e+00
      outer loop
         vertex 6.725557e+01 2.434763e+01 1.611746e+02
         vertex 7.315670e+01 2.021562e+01 1.411746e+02
         vertex 7.315670e+01 2.021562e+01 1.611746e+02
      endloop
   endfacet
   facet normal -4.226179e-01 -9.063080e-01 -0.000000e+00
      outer loop
         vertex 7.315670e+01 2.021562e+01 1.611746e+02
         vertex 7.315670e+01 2.021562e+01 1.411746e+02
         vertex 7.968569e+01 1.717110e+01 1.411746e+02
      endloop
   endfacet
   facet normal -4.226179e-01 -9.063080e-01 0.000000e+00
      outer loop
         vertex 7.315670e+01 2.021562e+01 1.611746e+02
         vertex 7.968569e+01 1.717110e+01 1.411746e+02
         vertex 7.968569e+01 1.717110e+01 1.611746e+02
      endloop
   endfacet
   facet normal -2.588191e-01 -9.659258e-01 -0.000000e+00
      outer loop
         vertex 7.968569e+01 1.717110e+01 1.611746e+02
         vertex 7.968569e+01 1.717110e+01 1.411746e+02
         vertex 8.664417e+01 1.530658e+01 1.411746e+02
      endloop
   endfacet
   facet normal -2.588191e-01 -9.659258e-01 0.000000e+00
      outer loop
         vertex 7.968569e+01 1.717110e+01 1.611746e+02
         vertex 8.664417e+01 1.530658e+01 1.411746e+02
         vertex 8.664417e+01 1.530658e+01 1.611746e+02
      endloop
   endfacet
   facet normal -8.715611e-02 -9.961947e-01 -0.000000e+00
      outer loop
         vertex 8.664417e+01 1.530658e+01 1.611746e+02
         vertex 8.664417e+01 1.530658e+01 1.411746e+02
         vertex 9.382070e+01 1.467871e+01 1.411746e+02
      endloop
   endfacet
   facet normal -8.715611e-02 -9.961947e-01 0.000000e+00
      outer loop
         vertex 8.664417e+01 1.530658e+01 1.611746e+02
         vertex 9.382070e+01 1.467871e+01 1.411746e+02
         vertex 9.382070e+01 1.467871e+01 1.611746e+02
      endloop
   endfacet
   facet normal 8.715611e-02 -9.961947e-01 0.000000e+00
      outer loop
         vertex 9.382070e+01 1.467871e+01 1.611746e+02
         vertex 9.382070e+01 1.467871e+01 1.411746e+02
         vertex 1.009972e+02 1.530658e+01 1.411746e+02
      endloop
   endfacet
   facet normal 8.715611e-02 -9.961947e-01 0.000000e+00
      outer loop
         vertex 9.382070e+01 1.467871e+01 1.611746e+02
         vertex 1.009972e+02 1.530658e+01 1.411746e+02
         vertex 1.009972e+02 1.530658e+01 1.611746e+02
      endloop
   endfacet
   facet normal 2.588191e-01 -9.659258e-01 0.000000e+00
      outer loop
         vertex 1.009972e+02 1.530658e+01 1.611746e+02
         vertex 1.009972e+02 1.530658e+01 1.411746e+02
         vertex 1.079557e+02 1.717110e+01 1.411746e+02
      endloop
   endfacet
   facet normal 2.588191e-01 -9.659258e-01 0.000000e+00
      outer loop
         vertex 1.009972e+02 1.530658e+01 1.611746e+02
         vertex 1.079557e+02 1.717110e+01 1.411746e+02
         vertex 1.079557e+02 1.717110e+01 1.611746e+02
      endloop
   endfacet
   facet normal 4.226179e-01 -9.063080e-01 0.000000e+00
      outer loop
         vertex 1.079557e+02 1.717110e+01 1.611746e+02
         vertex 1.079557e+02 1.717110e+01 1.411746e+02
         vertex 1.144847e+02 2.021562e+01 1.411746e+02
      endloop
   endfacet
   facet normal 4.226179e-01 -9.063080e-01 0.000000e+00
      outer loop
         vertex 1.079557e+02 1.717110e+01 1.611746e+02
         vertex 1.144847e+02 2.021562e+01 1.411746e+02
         vertex 1.144847e+02 2.021562e+01 1.611746e+02
      endloop
   endfacet
   facet normal 5.735765e-01 -8.191520e-01 0.000000e+00
      outer loop
         vertex 1.144847e+02 2.021562e+01 1.611746e+02
         vertex 1.144847e+02 2.021562e+01 1.411746e+02
         vertex 1.203858e+02 2.434763e+01 1.411746e+02
      endloop
   endfacet
   facet normal 5.735765e-01 -8.191520e-01 0.000000e+00
      outer loop
         vertex 1.144847e+02 2.021562e+01 1.611746e+02
         vertex 1.203858e+02 2.434763e+01 1.411746e+02
         vertex 1.203858e+02 2.434763e+01 1.611746e+02
      endloop
   endfacet
   facet normal 7.071068e-01 -7.071068e-01 0.000000e+00
      outer loop
         vertex 1.203858e+02 2.434763e+01 1.611746e+02
         vertex 1.203858e+02 2.434763e+01 1.411746e+02
         vertex 1.254798e+02 2.944159e+01 1.411746e+02
      endloop
   endfacet
   facet normal 7.071068e-01 -7.071068e-01 0.000000e+00
      outer loop
         vertex 1.203858e+02 2.434763e+01 1.611746e+02
         vertex 1.254798e+02 2.944159e+01 1.411746e+02
         vertex 1.254798e+02 2.944159e+01 1.611746e+02
      endloop
   endfacet
   facet normal 8.191520e-01 -5.735765e-01 0.000000e+00
      outer loop
         vertex 1.254798e+02 2.944159e+01 1.611746e+02
         vertex 1.254798e+02 2.944159e+01 1.411746e+02
         vertex 1.296118e+02 3.534271e+01 1.411746e+02
      endloop
   endfacet
   facet normal 8.191520e-01 -5.735765e-01 0.000000e+00
      outer loop
         vertex 1.254798e+02 2.944159e+01 1.611746e+02
         vertex 1.296118e+02 3.534271e+01 1.411746e+02
         vertex 1.296118e+02 3.534271e+01 1.611746e+02
      endloop
   endfacet
   facet normal 9.063080e-01 -4.226179e-01 0.000000e+00
      outer loop
         vertex 1.296118e+02 3.534271e+01 1.611746e+02
         vertex 1.296118e+02 3.534271e+01 1.411746e+02
         vertex 1.326563e+02 4.187171e+01 1.411746e+02
      endloop
   endfacet
   facet normal 9.063080e-01 -4.226179e-01 0.000000e+00
      outer loop
         vertex 1.296118e+02 3.534271e+01 1.611746e+02
         vertex 1.326563e+02 4.187171e+01 1.411746e+02
         vertex 1.326563e+02 4.187171e+01 1.611746e+02
      endloop
   endfacet
   facet normal 9.659258e-01 -2.588191e-01 0.000000e+00
      outer loop
         vertex 1.326563e+02 4.187171e+01 1.611746e+02
         vertex 1.326563e+02 4.187171e+01 1.411746e+02
         vertex 1.345208e+02 4.883018e+01 1.411746e+02
      endloop
   endfacet
   facet normal 9.659258e-01 -2.588191e-01 0.000000e+00
      outer loop
         vertex 1.326563e+02 4.187171e+01 1.611746e+02
         vertex 1.345208e+02 4.883018e+01 1.411746e+02
         vertex 1.345208e+02 4.883018e+01 1.611746e+02
      endloop
   endfacet
   facet normal 9.961947e-01 -8.715611e-02 0.000000e+00
      outer loop
         vertex 1.345208e+02 4.883018e+01 1.611746e+02
         vertex 1.345208e+02 4.883018e+01 1.411746e+02
         vertex 1.351487e+02 5.600671e+01 1.411746e+02
      endloop
   endfacet
   facet normal 9.961947e-01 -8.715611e-02 0.000000e+00
      outer loop
         vertex 1.345208e+02 4.883018e+01 1.611746e+02
         vertex 1.351487e+02 5.600671e+01 1.411746e+02
         vertex 1.351487e+02 5.600671e+01 1.611746e+02
      endloop
   endfacet
   facet normal -9.997040e-01 -2.433036e-02 0.000000e+00
      outer loop
         vertex 5.249270e+01 5.600671e+01 1.411746e+02
         vertex 5.249270e+01 5.600671e+01 1.611746e+02
         vertex 5.160702e+01 9.239791e+01 1.611746e+02
      endloop
   endfacet
   facet normal 9.996494e-01 2.647801e-02 -0.000000e+00
      outer loop
         vertex 1.390645e+02 1.955556e+02 1.411746e+02
         vertex 1.390645e+02 1.955556e+02 1.526269e+02
         vertex 1.393833e+02 1.835176e+02 1.411746e+02
      endloop
   endfacet
   facet normal 9.989396e-01 4.274060e-02 -1.711421e-02
      outer loop
         vertex 1.393833e+02 1.835176e+02 1.411746e+02
         vertex 1.390645e+02 1.955556e+02 1.526269e+02
         vertex 1.393148e+02 1.899528e+02 1.532436e+02
      endloop
   endfacet
   facet normal 9.918954e-01 1.270575e-01 0.000000e+00
      outer loop
         vertex 1.367872e+02 2.176508e+02 1.512574e+02
         vertex 1.376764e+02 2.107096e+02 1.515059e+02
         vertex 1.376764e+02 2.107096e+02 1.411746e+02
      endloop
   endfacet
   facet normal 9.936106e-01 1.128625e-01 -0.000000e+00
      outer loop
         vertex 1.376764e+02 2.107096e+02 1.411746e+02
         vertex 1.376764e+02 2.107096e+02 1.515059e+02
         vertex 1.380700e+02 2.072439e+02 1.516922e+02
      endloop
   endfacet
   facet normal 9.958050e-01 9.121570e-02 -7.215106e-03
      outer loop
         vertex 1.376764e+02 2.107096e+02 1.411746e+02
         vertex 1.380700e+02 2.072439e+02 1.516922e+02
         vertex 1.390645e+02 1.955556e+02 1.411746e+02
      endloop
   endfacet
   facet normal 9.949559e-01 9.903199e-02 -1.598179e-02
      outer loop
         vertex 1.390645e+02 1.955556e+02 1.411746e+02
         vertex 1.380700e+02 2.072439e+02 1.516922e+02
         vertex 1.384831e+02 2.031381e+02 1.519665e+02
      endloop
   endfacet
   facet normal 9.970736e-01 7.644806e-02 -0.000000e+00
      outer loop
         vertex 1.390645e+02 1.955556e+02 1.411746e+02
         vertex 1.384831e+02 2.031381e+02 1.519665e+02
         vertex 1.390645e+02 1.955556e+02 1.526269e+02
      endloop
   endfacet
   facet normal 9.899460e-01 1.411027e-01 -9.840937e-03
      outer loop
         vertex 1.367872e+02 2.176508e+02 1.512574e+02
         vertex 1.376764e+02 2.107096e+02 1.411746e+02
         vertex 1.357971e+02 2.245917e+02 1.511746e+02
      endloop
   endfacet
   facet normal 9.900001e-01 1.407564e-01 -9.349952e-03
      outer loop
         vertex 1.357971e+02 2.245917e+02 1.511746e+02
         vertex 1.376764e+02 2.107096e+02 1.411746e+02
         vertex 1.347683e+02 2.311632e+02 1.411746e+02
      endloop
   endfacet
   facet normal 9.879668e-01 1.546659e-01 0.000000e+00
      outer loop
         vertex 1.357971e+02 2.245917e+02 1.511746e+02
         vertex 1.347683e+02 2.311632e+02 1.411746e+02
         vertex 1.347683e+02 2.311632e+02 1.511746e+02
      endloop
   endfacet
   facet normal 9.827697e-01 1.848345e-01 0.000000e+00
      outer loop
         vertex 1.347683e+02 2.311632e+02 1.511746e+02
         vertex 1.347683e+02 2.311632e+02 1.411746e+02
         vertex 1.316848e+02 2.475586e+02 1.411746e+02
      endloop
   endfacet
   facet normal 9.827697e-01 1.848345e-01 0.000000e+00
      outer loop
         vertex 1.347683e+02 2.311632e+02 1.511746e+02
         vertex 1.316848e+02 2.475586e+02 1.411746e+02
         vertex 1.316848e+02 2.475586e+02 1.511746e+02
      endloop
   endfacet
   facet normal 9.716872e-01 2.362710e-01 0.000000e+00
      outer loop
         vertex 1.316848e+02 2.475586e+02 1.511746e+02
         vertex 1.316848e+02 2.475586e+02 1.411746e+02
         vertex 1.286329e+02 2.601095e+02 1.411746e+02
      endloop
   endfacet
   facet normal 9.716872e-01 2.362710e-01 0.000000e+00
      outer loop
         vertex 1.316848e+02 2.475586e+02 1.511746e+02
         vertex 1.286329e+02 2.601095e+02 1.411746e+02
         vertex 1.286329e+02 2.601095e+02 1.511746e+02
      endloop
   endfacet
   facet normal 9.531401e-01 3.025291e-01 0.000000e+00
      outer loop
         vertex 1.286329e+02 2.601095e+02 1.511746e+02
         vertex 1.286329e+02 2.601095e+02 1.411746e+02
         vertex 1.257295e+02 2.692572e+02 1.411746e+02
      endloop
   endfacet
   facet normal 9.531401e-01 3.025291e-01 0.000000e+00
      outer loop
         vertex 1.286329e+02 2.601095e+02 1.511746e+02
         vertex 1.257295e+02 2.692572e+02 1.411746e+02
         vertex 1.257295e+02 2.692572e+02 1.511746e+02
      endloop
   endfacet
   facet normal 9.377904e-01 3.472019e-01 0.000000e+00
      outer loop
         vertex 1.257295e+02 2.692572e+02 1.511746e+02
         vertex 1.257295e+02 2.692572e+02 1.411746e+02
         vertex 1.252161e+02 2.706438e+02 1.411746e+02
      endloop
   endfacet
   facet normal 9.377904e-01 3.472019e-01 0.000000e+00
      outer loop
         vertex 1.257295e+02 2.692572e+02 1.511746e+02
         vertex 1.252161e+02 2.706438e+02 1.411746e+02
         vertex 1.252161e+02 2.706438e+02 1.511746e+02
      endloop
   endfacet
   facet normal 9.193448e-01 3.934528e-01 0.000000e+00
      outer loop
         vertex 1.252161e+02 2.706438e+02 1.511746e+02
         vertex 1.252161e+02 2.706438e+02 1.411746e+02
         vertex 1.219559e+02 2.782616e+02 1.411746e+02
      endloop
   endfacet
   facet normal 9.193448e-01 3.934528e-01 0.000000e+00
      outer loop
         vertex 1.252161e+02 2.706438e+02 1.511746e+02
         vertex 1.219559e+02 2.782616e+02 1.411746e+02
         vertex 1.219559e+02 2.782616e+02 1.511746e+02
      endloop
   endfacet
   facet normal 8.781882e-01 4.783153e-01 0.000000e+00
      outer loop
         vertex 1.219559e+02 2.782616e+02 1.511746e+02
         vertex 1.219559e+02 2.782616e+02 1.411746e+02
         vertex 1.179437e+02 2.856279e+02 1.411746e+02
      endloop
   endfacet
   facet normal 8.781882e-01 4.783153e-01 0.000000e+00
      outer loop
         vertex 1.219559e+02 2.782616e+02 1.511746e+02
         vertex 1.179437e+02 2.856279e+02 1.411746e+02
         vertex 1.179437e+02 2.856279e+02 1.511746e+02
      endloop
   endfacet
   facet normal 8.256783e-01 5.641412e-01 0.000000e+00
      outer loop
         vertex 1.179437e+02 2.856279e+02 1.511746e+02
         vertex 1.179437e+02 2.856279e+02 1.411746e+02
         vertex 1.131307e+02 2.926723e+02 1.411746e+02
      endloop
   endfacet
   facet normal 8.256783e-01 5.641412e-01 0.000000e+00
      outer loop
         vertex 1.179437e+02 2.856279e+02 1.511746e+02
         vertex 1.131307e+02 2.926723e+02 1.411746e+02
         vertex 1.131307e+02 2.926723e+02 1.511746e+02
      endloop
   endfacet
   facet normal 7.666628e-01 6.420499e-01 0.000000e+00
      outer loop
         vertex 1.131307e+02 2.926723e+02 1.511746e+02
         vertex 1.131307e+02 2.926723e+02 1.411746e+02
         vertex 1.077758e+02 2.990664e+02 1.411746e+02
      endloop
   endfacet
   facet normal 7.666628e-01 6.420499e-01 0.000000e+00
      outer loop
         vertex 1.131307e+02 2.926723e+02 1.511746e+02
         vertex 1.077758e+02 2.990664e+02 1.411746e+02
         vertex 1.077758e+02 2.990664e+02 1.511746e+02
      endloop
   endfacet
   facet normal 6.985605e-01 7.155510e-01 0.000000e+00
      outer loop
         vertex 1.077758e+02 2.990664e+02 1.511746e+02
         vertex 1.077758e+02 2.990664e+02 1.411746e+02
         vertex 1.018709e+02 3.048312e+02 1.411746e+02
      endloop
   endfacet
   facet normal 6.985605e-01 7.155510e-01 0.000000e+00
      outer loop
         vertex 1.077758e+02 2.990664e+02 1.511746e+02
         vertex 1.018709e+02 3.048312e+02 1.411746e+02
         vertex 1.018709e+02 3.048312e+02 1.511746e+02
      endloop
   endfacet
   facet normal 6.195924e-01 7.849237e-01 0.000000e+00
      outer loop
         vertex 1.018709e+02 3.048312e+02 1.511746e+02
         vertex 1.018709e+02 3.048312e+02 1.411746e+02
         vertex 9.614385e+01 3.093519e+02 1.411746e+02
      endloop
   endfacet
   facet normal 6.195924e-01 7.849237e-01 0.000000e+00
      outer loop
         vertex 1.018709e+02 3.048312e+02 1.511746e+02
         vertex 9.614385e+01 3.093519e+02 1.411746e+02
         vertex 9.614385e+01 3.093519e+02 1.511746e+02
      endloop
   endfacet
   facet normal 5.289513e-01 8.486522e-01 0.000000e+00
      outer loop
         vertex 9.614385e+01 3.093519e+02 1.511746e+02
         vertex 9.614385e+01 3.093519e+02 1.411746e+02
         vertex 9.048093e+01 3.128815e+02 1.411746e+02
      endloop
   endfacet
   facet normal 5.289513e-01 8.486522e-01 0.000000e+00
      outer loop
         vertex 9.614385e+01 3.093519e+02 1.511746e+02
         vertex 9.048093e+01 3.128815e+02 1.411746e+02
         vertex 9.048093e+01 3.128815e+02 1.511746e+02
      endloop
   endfacet
   facet normal 4.222154e-01 9.064955e-01 0.000000e+00
      outer loop
         vertex 9.048093e+01 3.128815e+02 1.511746e+02
         vertex 9.048093e+01 3.128815e+02 1.411746e+02
         vertex 8.496237e+01 3.154519e+02 1.411746e+02
      endloop
   endfacet
   facet normal 4.222154e-01 9.064955e-01 0.000000e+00
      outer loop
         vertex 9.048093e+01 3.128815e+02 1.511746e+02
         vertex 8.496237e+01 3.154519e+02 1.411746e+02
         vertex 8.496237e+01 3.154519e+02 1.511746e+02
      endloop
   endfacet
   facet normal 2.974469e-01 9.547384e-01 0.000000e+00
      outer loop
         vertex 8.496237e+01 3.154519e+02 1.511746e+02
         vertex 8.496237e+01 3.154519e+02 1.411746e+02
         vertex 7.962020e+01 3.171162e+02 1.411746e+02
      endloop
   endfacet
   facet normal 2.974469e-01 9.547384e-01 0.000000e+00
      outer loop
         vertex 8.496237e+01 3.154519e+02 1.511746e+02
         vertex 7.962020e+01 3.171162e+02 1.411746e+02
         vertex 7.962020e+01 3.171162e+02 1.511746e+02
      endloop
   endfacet
   facet normal 1.559057e-01 9.877719e-01 0.000000e+00
      outer loop
         vertex 7.962020e+01 3.171162e+02 1.511746e+02
         vertex 7.962020e+01 3.171162e+02 1.411746e+02
         vertex 7.455288e+01 3.179160e+02 1.411746e+02
      endloop
   endfacet
   facet normal 1.559057e-01 9.877719e-01 0.000000e+00
      outer loop
         vertex 7.962020e+01 3.171162e+02 1.511746e+02
         vertex 7.455288e+01 3.179160e+02 1.411746e+02
         vertex 7.455288e+01 3.179160e+02 1.511746e+02
      endloop
   endfacet
   facet normal -4.176223e-04 9.999999e-01 0.000000e+00
      outer loop
         vertex 7.455288e+01 3.179160e+02 1.511746e+02
         vertex 7.455288e+01 3.179160e+02 1.411746e+02
         vertex 6.955755e+01 3.179139e+02 1.411746e+02
      endloop
   endfacet
   facet normal -4.176223e-04 9.999999e-01 0.000000e+00
      outer loop
         vertex 7.455288e+01 3.179160e+02 1.511746e+02
         vertex 6.955755e+01 3.179139e+02 1.411746e+02
         vertex 6.955755e+01 3.179139e+02 1.511746e+02
      endloop
   endfacet
   facet normal -1.614414e-01 9.868823e-01 0.000000e+00
      outer loop
         vertex 6.955755e+01 3.179139e+02 1.511746e+02
         vertex 6.955755e+01 3.179139e+02 1.411746e+02
         vertex 6.459241e+01 3.171017e+02 1.411746e+02
      endloop
   endfacet
   facet normal -1.614414e-01 9.868823e-01 0.000000e+00
      outer loop
         vertex 6.955755e+01 3.179139e+02 1.511746e+02
         vertex 6.459241e+01 3.171017e+02 1.411746e+02
         vertex 6.459241e+01 3.171017e+02 1.511746e+02
      endloop
   endfacet
   facet normal -3.072132e-01 9.516407e-01 0.000000e+00
      outer loop
         vertex 6.459241e+01 3.171017e+02 1.511746e+02
         vertex 6.459241e+01 3.171017e+02 1.411746e+02
         vertex 5.943584e+01 3.154370e+02 1.411746e+02
      endloop
   endfacet
   facet normal -3.072132e-01 9.516407e-01 0.000000e+00
      outer loop
         vertex 6.459241e+01 3.171017e+02 1.511746e+02
         vertex 5.943584e+01 3.154370e+02 1.411746e+02
         vertex 5.943584e+01 3.154370e+02 1.511746e+02
      endloop
   endfacet
   facet normal -4.358012e-01 9.000429e-01 0.000000e+00
      outer loop
         vertex 5.943584e+01 3.154370e+02 1.511746e+02
         vertex 5.943584e+01 3.154370e+02 1.411746e+02
         vertex 5.413975e+01 3.128727e+02 1.411746e+02
      endloop
   endfacet
   facet normal -4.358012e-01 9.000429e-01 0.000000e+00
      outer loop
         vertex 5.943584e+01 3.154370e+02 1.511746e+02
         vertex 5.413975e+01 3.128727e+02 1.411746e+02
         vertex 5.413975e+01 3.128727e+02 1.511746e+02
      endloop
   endfacet
   facet normal -5.527254e-01 8.333635e-01 0.000000e+00
      outer loop
         vertex 5.413975e+01 3.128727e+02 1.511746e+02
         vertex 5.413975e+01 3.128727e+02 1.411746e+02
         vertex 4.822320e+01 3.089485e+02 1.411746e+02
      endloop
   endfacet
   facet normal -5.527254e-01 8.333635e-01 0.000000e+00
      outer loop
         vertex 5.413975e+01 3.128727e+02 1.511746e+02
         vertex 4.822320e+01 3.089485e+02 1.411746e+02
         vertex 4.822320e+01 3.089485e+02 1.511746e+02
      endloop
   endfacet
   facet normal -6.559747e-01 7.547829e-01 0.000000e+00
      outer loop
         vertex 4.822320e+01 3.089485e+02 1.511746e+02
         vertex 4.822320e+01 3.089485e+02 1.411746e+02
         vertex 4.259295e+01 3.040553e+02 1.411746e+02
      endloop
   endfacet
   facet normal -6.559747e-01 7.547829e-01 0.000000e+00
      outer loop
         vertex 4.822320e+01 3.089485e+02 1.511746e+02
         vertex 4.259295e+01 3.040553e+02 1.411746e+02
         vertex 4.259295e+01 3.040553e+02 1.511746e+02
      endloop
   endfacet
   facet normal -7.235937e-01 6.902262e-01 0.000000e+00
      outer loop
         vertex 4.259295e+01 3.040553e+02 1.511746e+02
         vertex 4.259295e+01 3.040553e+02 1.411746e+02
         vertex 3.975900e+01 3.010844e+02 1.411746e+02
      endloop
   endfacet
   facet normal -7.235937e-01 6.902262e-01 0.000000e+00
      outer loop
         vertex 4.259295e+01 3.040553e+02 1.511746e+02
         vertex 3.975900e+01 3.010844e+02 1.411746e+02
         vertex 3.975900e+01 3.010844e+02 1.511746e+02
      endloop
   endfacet
   facet normal -7.826904e-01 6.224112e-01 0.000000e+00
      outer loop
         vertex 3.975900e+01 3.010844e+02 1.511746e+02
         vertex 3.975900e+01 3.010844e+02 1.411746e+02
         vertex 3.504325e+01 2.951543e+02 1.411746e+02
      endloop
   endfacet
   facet normal -7.826904e-01 6.224112e-01 0.000000e+00
      outer loop
         vertex 3.975900e+01 3.010844e+02 1.511746e+02
         vertex 3.504325e+01 2.951543e+02 1.411746e+02
         vertex 3.504325e+01 2.951543e+02 1.511746e+02
      endloop
   endfacet
   facet normal -8.492687e-01 5.279608e-01 0.000000e+00
      outer loop
         vertex 3.504325e+01 2.951543e+02 1.511746e+02
         vertex 3.504325e+01 2.951543e+02 1.411746e+02
         vertex 3.117334e+01 2.889292e+02 1.411746e+02
      endloop
   endfacet
   facet normal -8.492687e-01 5.279608e-01 0.000000e+00
      outer loop
         vertex 3.504325e+01 2.951543e+02 1.511746e+02
         vertex 3.117334e+01 2.889292e+02 1.411746e+02
         vertex 3.117334e+01 2.889292e+02 1.511746e+02
      endloop
   endfacet
   facet normal -9.078320e-01 4.193340e-01 0.000000e+00
      outer loop
         vertex 3.117334e+01 2.889292e+02 1.511746e+02
         vertex 3.117334e+01 2.889292e+02 1.411746e+02
         vertex 2.804066e+01 2.821471e+02 1.411746e+02
      endloop
   endfacet
   facet normal -9.078320e-01 4.193340e-01 0.000000e+00
      outer loop
         vertex 3.117334e+01 2.889292e+02 1.511746e+02
         vertex 2.804066e+01 2.821471e+02 1.411746e+02
         vertex 2.804066e+01 2.821471e+02 1.511746e+02
      endloop
   endfacet
   facet normal -9.522599e-01 3.052885e-01 0.000000e+00
      outer loop
         vertex 2.804066e+01 2.821471e+02 1.511746e+02
         vertex 2.804066e+01 2.821471e+02 1.411746e+02
         vertex 2.595823e+01 2.756516e+02 1.411746e+02
      endloop
   endfacet
   facet normal -9.522599e-01 3.052885e-01 0.000000e+00
      outer loop
         vertex 2.804066e+01 2.821471e+02 1.511746e+02
         vertex 2.595823e+01 2.756516e+02 1.411746e+02
         vertex 2.595823e+01 2.756516e+02 1.511746e+02
      endloop
   endfacet
   facet normal -9.793056e-01 2.023872e-01 0.000000e+00
      outer loop
         vertex 2.595823e+01 2.756516e+02 1.511746e+02
         vertex 2.595823e+01 2.756516e+02 1.411746e+02
         vertex 2.446957e+01 2.684483e+02 1.411746e+02
      endloop
   endfacet
   facet normal -9.793056e-01 2.023872e-01 0.000000e+00
      outer loop
         vertex 2.595823e+01 2.756516e+02 1.511746e+02
         vertex 2.446957e+01 2.684483e+02 1.411746e+02
         vertex 2.446957e+01 2.684483e+02 1.511746e+02
      endloop
   endfacet
   facet normal -9.942728e-01 1.068716e-01 0.000000e+00
      outer loop
         vertex 2.446957e+01 2.684483e+02 1.511746e+02
         vertex 2.446957e+01 2.684483e+02 1.411746e+02
         vertex 2.347940e+01 2.592364e+02 1.411746e+02
      endloop
   endfacet
   facet normal -9.942728e-01 1.068716e-01 0.000000e+00
      outer loop
         vertex 2.446957e+01 2.684483e+02 1.511746e+02
         vertex 2.347940e+01 2.592364e+02 1.411746e+02
         vertex 2.347940e+01 2.592364e+02 1.511746e+02
      endloop
   endfacet
   facet normal -9.995604e-01 2.964813e-02 0.000000e+00
      outer loop
         vertex 2.347940e+01 2.592364e+02 1.511746e+02
         vertex 2.347940e+01 2.592364e+02 1.411746e+02
         vertex 2.311501e+01 2.469512e+02 1.411746e+02
      endloop
   endfacet
   facet normal -9.995604e-01 2.964813e-02 0.000000e+00
      outer loop
         vertex 2.347940e+01 2.592364e+02 1.511746e+02
         vertex 2.311501e+01 2.469512e+02 1.411746e+02
         vertex 2.311501e+01 2.469512e+02 1.511746e+02
      endloop
   endfacet
   facet normal -9.995337e-01 -3.053418e-02 -0.000000e+00
      outer loop
         vertex 2.311501e+01 2.469512e+02 1.511746e+02
         vertex 2.311501e+01 2.469512e+02 1.411746e+02
         vertex 2.345338e+01 2.358747e+02 1.411746e+02
      endloop
   endfacet
   facet normal -9.995337e-01 -3.053418e-02 0.000000e+00
      outer loop
         vertex 2.311501e+01 2.469512e+02 1.511746e+02
         vertex 2.345338e+01 2.358747e+02 1.411746e+02
         vertex 2.345338e+01 2.358747e+02 1.511746e+02
      endloop
   endfacet
   facet normal -9.950989e-01 -9.888472e-02 -0.000000e+00
      outer loop
         vertex 2.345338e+01 2.358747e+02 1.511746e+02
         vertex 2.345338e+01 2.358747e+02 1.411746e+02
         vertex 2.448903e+01 2.254527e+02 1.411746e+02
      endloop
   endfacet
   facet normal -9.950989e-01 -9.888472e-02 0.000000e+00
      outer loop
         vertex 2.345338e+01 2.358747e+02 1.511746e+02
         vertex 2.448903e+01 2.254527e+02 1.411746e+02
         vertex 2.448903e+01 2.254527e+02 1.511746e+02
      endloop
   endfacet
   facet normal -9.800495e-01 -1.987538e-01 0.000000e+00
      outer loop
         vertex 2.623890e+01 2.157090e+02 1.411746e+02
         vertex 2.623890e+01 2.157090e+02 1.513102e+02
         vertex 2.534313e+01 2.201260e+02 1.512089e+02
      endloop
   endfacet
   facet normal -9.842039e-01 -1.767528e-01 -1.005563e-02
      outer loop
         vertex 2.623890e+01 2.157090e+02 1.411746e+02
         vertex 2.534313e+01 2.201260e+02 1.512089e+02
         vertex 2.448903e+01 2.254527e+02 1.411746e+02
      endloop
   endfacet
   facet normal -9.868219e-01 -1.617990e-01 -1.894591e-03
      outer loop
         vertex 2.448903e+01 2.254527e+02 1.411746e+02
         vertex 2.534313e+01 2.201260e+02 1.512089e+02
         vertex 2.461100e+01 2.245917e+02 1.511746e+02
      endloop
   endfacet
   facet normal -9.901145e-01 -1.402614e-01 0.000000e+00
      outer loop
         vertex 2.448903e+01 2.254527e+02 1.411746e+02
         vertex 2.461100e+01 2.245917e+02 1.511746e+02
         vertex 2.448903e+01 2.254527e+02 1.511746e+02
      endloop
   endfacet
   facet normal -9.720356e-01 -2.348334e-01 -0.000000e+00
      outer loop
         vertex 2.623890e+01 2.157090e+02 1.513102e+02
         vertex 2.623890e+01 2.157090e+02 1.411746e+02
         vertex 2.745599e+01 2.106712e+02 1.515078e+02
      endloop
   endfacet
   facet normal -9.678977e-01 -2.512019e-01 -8.467646e-03
      outer loop
         vertex 2.745599e+01 2.106712e+02 1.515078e+02
         vertex 2.623890e+01 2.157090e+02 1.411746e+02
         vertex 2.884070e+01 2.056841e+02 1.411746e+02
      endloop
   endfacet
   facet normal -9.635471e-01 -2.675387e-01 0.000000e+00
      outer loop
         vertex 2.745599e+01 2.106712e+02 1.515078e+02
         vertex 2.884070e+01 2.056841e+02 1.411746e+02
         vertex 2.884070e+01 2.056841e+02 1.517895e+02
      endloop
   endfacet
   facet normal -9.550220e-01 -2.965350e-01 -0.000000e+00
      outer loop
         vertex 2.884070e+01 2.056841e+02 1.517895e+02
         vertex 2.884070e+01 2.056841e+02 1.411746e+02
         vertex 3.069513e+01 1.997117e+02 1.522402e+02
      endloop
   endfacet
   facet normal -9.512231e-01 -3.084233e-01 -7.053085e-03
      outer loop
         vertex 3.069513e+01 1.997117e+02 1.522402e+02
         vertex 2.884070e+01 2.056841e+02 1.411746e+02
         vertex 3.269822e+01 1.937869e+02 1.411746e+02
      endloop
   endfacet
   facet normal -9.473237e-01 -3.202778e-01 0.000000e+00
      outer loop
         vertex 3.069513e+01 1.997117e+02 1.522402e+02
         vertex 3.269822e+01 1.937869e+02 1.411746e+02
         vertex 3.269822e+01 1.937869e+02 1.528097e+02
      endloop
   endfacet
   facet normal -9.462695e-01 -3.233227e-01 6.038517e-03
      outer loop
         vertex 4.304700e+01 1.644265e+02 1.411746e+02
         vertex 4.076943e+01 1.713593e+02 1.554727e+02
         vertex 3.832406e+01 1.782491e+02 1.411746e+02
      endloop
   endfacet
   facet normal -9.424023e-01 -3.344815e-01 0.000000e+00
      outer loop
         vertex 3.832406e+01 1.782491e+02 1.411746e+02
         vertex 4.076943e+01 1.713593e+02 1.554727e+02
         vertex 3.832406e+01 1.782491e+02 1.546467e+02
      endloop
   endfacet
   facet normal -9.402643e-01 -3.404454e-01 0.000000e+00
      outer loop
         vertex 3.832406e+01 1.782491e+02 1.411746e+02
         vertex 3.832406e+01 1.782491e+02 1.546467e+02
         vertex 3.269822e+01 1.937869e+02 1.411746e+02
      endloop
   endfacet
   facet normal -9.393599e-01 -3.429178e-01 -3.229234e-03
      outer loop
         vertex 3.269822e+01 1.937869e+02 1.411746e+02
         vertex 3.832406e+01 1.782491e+02 1.546467e+02
         vertex 3.405640e+01 1.899528e+02 1.532436e+02
      endloop
   endfacet
   facet normal -9.426073e-01 -3.339033e-01 0.000000e+00
      outer loop
         vertex 3.269822e+01 1.937869e+02 1.411746e+02
         vertex 3.405640e+01 1.899528e+02 1.532436e+02
         vertex 3.269822e+01 1.937869e+02 1.528097e+02
      endloop
   endfacet
   facet normal -9.646471e-01 -2.634649e-01 6.498341e-03
      outer loop
         vertex 4.596509e+01 1.537422e+02 1.411746e+02
         vertex 4.460531e+01 1.591098e+02 1.569412e+02
         vertex 4.304700e+01 1.644265e+02 1.411746e+02
      endloop
   endfacet
   facet normal -9.596301e-01 -2.812652e-01 0.000000e+00
      outer loop
         vertex 4.304700e+01 1.644265e+02 1.411746e+02
         vertex 4.460531e+01 1.591098e+02 1.569412e+02
         vertex 4.304700e+01 1.644265e+02 1.563038e+02
      endloop
   endfacet
   facet normal -9.500461e-01 -3.121096e-01 0.000000e+00
      outer loop
         vertex 4.304700e+01 1.644265e+02 1.411746e+02
         vertex 4.304700e+01 1.644265e+02 1.563038e+02
         vertex 4.076943e+01 1.713593e+02 1.554727e+02
      endloop
   endfacet
   facet normal -9.821213e-01 -1.881695e-01 5.473494e-03
      outer loop
         vertex 4.791708e+01 1.435541e+02 1.411746e+02
         vertex 4.703149e+01 1.486713e+02 1.581927e+02
         vertex 4.596509e+01 1.537422e+02 1.411746e+02
      endloop
   endfacet
   facet normal -9.785947e-01 -2.057970e-01 0.000000e+00
      outer loop
         vertex 4.596509e+01 1.537422e+02 1.411746e+02
         vertex 4.703149e+01 1.486713e+02 1.581927e+02
         vertex 4.596509e+01 1.537422e+02 1.575847e+02
      endloop
   endfacet
   facet normal -9.693776e-01 -2.455751e-01 0.000000e+00
      outer loop
         vertex 4.596509e+01 1.537422e+02 1.411746e+02
         vertex 4.596509e+01 1.537422e+02 1.575847e+02
         vertex 4.460531e+01 1.591098e+02 1.569412e+02
      endloop
   endfacet
   facet normal -9.922128e-01 -1.245124e-01 3.238316e-03
      outer loop
         vertex 4.936819e+01 1.319905e+02 1.411746e+02
         vertex 4.828911e+01 1.410558e+02 1.591057e+02
         vertex 4.791708e+01 1.435541e+02 1.411746e+02
      endloop
   endfacet
   facet normal -9.890934e-01 -1.472898e-01 4.905904e-08
      outer loop
         vertex 4.791708e+01 1.435541e+02 1.411746e+02
         vertex 4.828911e+01 1.410558e+02 1.591057e+02
         vertex 4.791709e+01 1.435540e+02 1.588062e+02
      endloop
   endfacet
   facet normal -9.853533e-01 -1.705255e-01 -1.119917e-07
      outer loop
         vertex 4.791708e+01 1.435541e+02 1.411746e+02
         vertex 4.791709e+01 1.435540e+02 1.588062e+02
         vertex 4.703149e+01 1.486713e+02 1.581927e+02
      endloop
   endfacet
   facet normal -9.985477e-01 -5.387396e-02 0.000000e+00
      outer loop
         vertex 5.108662e+01 1.064169e+02 1.611746e+02
         vertex 5.044056e+01 1.183915e+02 1.609281e+02
         vertex 5.044056e+01 1.183915e+02 1.411746e+02
      endloop
   endfacet
   facet normal -9.975497e-01 -6.996162e-02 0.000000e+00
      outer loop
         vertex 5.044056e+01 1.183915e+02 1.411746e+02
         vertex 5.044056e+01 1.183915e+02 1.609281e+02
         vertex 4.996302e+01 1.252004e+02 1.605678e+02
      endloop
   endfacet
   facet normal -9.969006e-01 -7.861200e-02 3.053151e-03
      outer loop
         vertex 5.044056e+01 1.183915e+02 1.411746e+02
         vertex 4.996302e+01 1.252004e+02 1.605678e+02
         vertex 4.936819e+01 1.319905e+02 1.411746e+02
      endloop
   endfacet
   facet normal -9.961847e-01 -8.726945e-02 0.000000e+00
      outer loop
         vertex 4.936819e+01 1.319905e+02 1.411746e+02
         vertex 4.996302e+01 1.252004e+02 1.605678e+02
         vertex 4.936819e+01 1.319905e+02 1.600487e+02
      endloop
   endfacet
   facet normal -9.929899e-01 -1.181996e-01 0.000000e+00
      outer loop
         vertex 4.936819e+01 1.319905e+02 1.411746e+02
         vertex 4.936819e+01 1.319905e+02 1.600487e+02
         vertex 4.828911e+01 1.410558e+02 1.591057e+02
      endloop
   endfacet
   facet normal 9.994552e-01 -3.291206e-02 2.483229e-03
      outer loop
         vertex 1.349400e+02 1.064169e+02 1.611746e+02
         vertex 1.348234e+02 1.013665e+02 1.411746e+02
         vertex 1.352478e+02 1.157499e+02 1.610249e+02
      endloop
   endfacet
   facet normal 9.993359e-01 -3.611873e-02 4.809311e-03
      outer loop
         vertex 1.352478e+02 1.157499e+02 1.610249e+02
         vertex 1.348234e+02 1.013665e+02 1.411746e+02
         vertex 1.356797e+02 1.250589e+02 1.411746e+02
      endloop
   endfacet
   facet normal 9.989250e-01 -4.635497e-02 0.000000e+00
      outer loop
         vertex 1.352478e+02 1.157499e+02 1.610249e+02
         vertex 1.356797e+02 1.250589e+02 1.411746e+02
         vertex 1.356797e+02 1.250589e+02 1.605769e+02
      endloop
   endfacet
   facet normal 9.977616e-01 -6.677366e-02 3.609841e-03
      outer loop
         vertex 1.373228e+02 1.496110e+02 1.411746e+02
         vertex 1.366854e+02 1.410558e+02 1.591057e+02
         vertex 1.356797e+02 1.250589e+02 1.411746e+02
      endloop
   endfacet
   facet normal 9.977570e-01 -6.683958e-02 3.668909e-03
      outer loop
         vertex 1.356797e+02 1.250589e+02 1.411746e+02
         vertex 1.366854e+02 1.410558e+02 1.591057e+02
         vertex 1.361471e+02 1.330657e+02 1.599518e+02
      endloop
   endfacet
   facet normal 9.983010e-01 -5.826720e-02 0.000000e+00
      outer loop
         vertex 1.356797e+02 1.250589e+02 1.411746e+02
         vertex 1.361471e+02 1.330657e+02 1.599518e+02
         vertex 1.356797e+02 1.250589e+02 1.605769e+02
      endloop
   endfacet
   facet normal 9.971821e-01 -7.496470e-02 -2.866555e-03
      outer loop
         vertex 1.389305e+02 1.709957e+02 1.411746e+02
         vertex 1.381715e+02 1.603020e+02 1.567983e+02
         vertex 1.373228e+02 1.496110e+02 1.411746e+02
      endloop
   endfacet
   facet normal 9.968644e-01 -7.912861e-02 0.000000e+00
      outer loop
         vertex 1.373228e+02 1.496110e+02 1.411746e+02
         vertex 1.381715e+02 1.603020e+02 1.567983e+02
         vertex 1.373228e+02 1.496110e+02 1.580800e+02
      endloop
   endfacet
   facet normal 9.972359e-01 -7.430046e-02 0.000000e+00
      outer loop
         vertex 1.373228e+02 1.496110e+02 1.411746e+02
         vertex 1.373228e+02 1.496110e+02 1.580800e+02
         vertex 1.366854e+02 1.410558e+02 1.591057e+02
      endloop
   endfacet
   facet normal 9.999432e-01 1.065444e-02 0.000000e+00
      outer loop
         vertex 1.393148e+02 1.899528e+02 1.532436e+02
         vertex 1.393833e+02 1.835176e+02 1.540151e+02
         vertex 1.393833e+02 1.835176e+02 1.411746e+02
      endloop
   endfacet
   facet normal 9.997292e-01 -2.326931e-02 0.000000e+00
      outer loop
         vertex 1.393833e+02 1.835176e+02 1.411746e+02
         vertex 1.393833e+02 1.835176e+02 1.540151e+02
         vertex 1.392376e+02 1.772543e+02 1.547660e+02
      endloop
   endfacet
   facet normal 9.993290e-01 -3.614188e-02 -5.936353e-03
      outer loop
         vertex 1.393833e+02 1.835176e+02 1.411746e+02
         vertex 1.392376e+02 1.772543e+02 1.547660e+02
         vertex 1.389305e+02 1.709957e+02 1.411746e+02
      endloop
   endfacet
   facet normal 9.987984e-01 -4.900737e-02 0.000000e+00
      outer loop
         vertex 1.389305e+02 1.709957e+02 1.411746e+02
         vertex 1.392376e+02 1.772543e+02 1.547660e+02
         vertex 1.389305e+02 1.709957e+02 1.555163e+02
      endloop
   endfacet
   facet normal 9.974906e-01 -7.079849e-02 0.000000e+00
      outer loop
         vertex 1.389305e+02 1.709957e+02 1.411746e+02
         vertex 1.389305e+02 1.709957e+02 1.555163e+02
         vertex 1.381715e+02 1.603020e+02 1.567983e+02
      endloop
   endfacet
   facet normal 9.997335e-01 -2.308460e-02 0.000000e+00
      outer loop
         vertex 1.349400e+02 1.064169e+02 1.611746e+02
         vertex 1.348234e+02 1.013665e+02 1.611746e+02
         vertex 1.348234e+02 1.013665e+02 1.411746e+02
      endloop
   endfacet
   facet normal 9.999911e-01 -4.212027e-03 0.000000e+00
      outer loop
         vertex 1.348234e+02 1.013665e+02 1.411746e+02
         vertex 1.348234e+02 1.013665e+02 1.611746e+02
         vertex 1.347183e+02 7.641934e+01 1.611746e+02
      endloop
   endfacet
   facet normal 9.999911e-01 -4.212027e-03 0.000000e+00
      outer loop
         vertex 1.348234e+02 1.013665e+02 1.411746e+02
         vertex 1.347183e+02 7.641934e+01 1.611746e+02
         vertex 1.347183e+02 7.641934e+01 1.411746e+02
      endloop
   endfacet
   facet normal 9.997778e-01 2.107801e-02 -0.000000e+00
      outer loop
         vertex 1.347183e+02 7.641934e+01 1.411746e+02
         vertex 1.347183e+02 7.641934e+01 1.611746e+02
         vertex 1.351487e+02 5.600671e+01 1.611746e+02
      endloop
   endfacet
   facet normal 9.997778e-01 2.107801e-02 0.000000e+00
      outer loop
         vertex 1.347183e+02 7.641934e+01 1.411746e+02
         vertex 1.351487e+02 5.600671e+01 1.611746e+02
         vertex 1.351487e+02 5.600671e+01 1.411746e+02
      endloop
   endfacet
   facet normal -9.992610e-01 -3.709421e-02 1.006954e-02
      outer loop
         vertex 5.108662e+01 1.064169e+02 1.611746e+02
         vertex 5.044056e+01 1.183915e+02 1.411746e+02
         vertex 5.160702e+01 9.239791e+01 1.611746e+02
      endloop
   endfacet
   facet normal -9.989946e-01 -4.482998e-02 -0.000000e+00
      outer loop
         vertex 5.160702e+01 9.239791e+01 1.611746e+02
         vertex 5.044056e+01 1.183915e+02 1.411746e+02
         vertex 5.160702e+01 9.239791e+01 1.411746e+02
      endloop
   endfacet
   facet normal -9.997040e-01 -2.433036e-02 -0.000000e+00
      outer loop
         vertex 5.160702e+01 9.239791e+01 1.611746e+02
         vertex 5.160702e+01 9.239791e+01 1.411746e+02
         vertex 5.249270e+01 5.600671e+01 1.411746e+02
      endloop
   endfacet
   facet normal 0.000000e+00 0.000000e+00 -1.000000e+00
      outer loop
         vertex 4.304700e+01 1.644265e+02 1.411746e+02
         vertex 1.393833e+02 1.835176e+02 1.411746e+02
         vertex 4.596509e+01 1.537422e+02 1.411746e+02
      endloop
   endfacet
   facet normal 0.000000e+00 0.000000e+00 -1.000000e+00
      outer loop
         vertex 4.596509e+01 1.537422e+02 1.411746e+02
         vertex 1.393833e+02 1.835176e+02 1.411746e+02
         vertex 1.389305e+02 1.709957e+02 1.411746e+02
      endloop
   endfacet
   facet normal 0.000000e+00 0.000000e+00 -1.000000e+00
      outer loop
         vertex 4.596509e+01 1.537422e+02 1.411746e+02
         vertex 1.389305e+02 1.709957e+02 1.411746e+02
         vertex 4.791708e+01 1.435541e+02 1.411746e+02
      endloop
   endfacet
   facet normal 0.000000e+00 0.000000e+00 -1.000000e+00
      outer loop
         vertex 4.791708e+01 1.435541e+02 1.411746e+02
         vertex 1.389305e+02 1.709957e+02 1.411746e+02
         vertex 1.373228e+02 1.496110e+02 1.411746e+02
      endloop
   endfacet
   facet normal 0.000000e+00 0.000000e+00 -1.000000e+00
      outer loop
         vertex 4.791708e+01 1.435541e+02 1.411746e+02
         vertex 1.373228e+02 1.496110e+02 1.411746e+02
         vertex 4.936819e+01 1.319905e+02 1.411746e+02
      endloop
   endfacet
   facet normal 0.000000e+00 0.000000e+00 -1.000000e+00
      outer loop
         vertex 4.936819e+01 1.319905e+02 1.411746e+02
         vertex 1.373228e+02 1.496110e+02 1.411746e+02
         vertex 5.044056e+01 1.183915e+02 1.411746e+02
      endloop
   endfacet
   facet normal 0.000000e+00 0.000000e+00 -1.000000e+00
      outer loop
         vertex 5.044056e+01 1.183915e+02 1.411746e+02
         vertex 1.373228e+02 1.496110e+02 1.411746e+02
         vertex 1.356797e+02 1.250589e+02 1.411746e+02
      endloop
   endfacet
   facet normal 0.000000e+00 0.000000e+00 -1.000000e+00
      outer loop
         vertex 5.044056e+01 1.183915e+02 1.411746e+02
         vertex 1.356797e+02 1.250589e+02 1.411746e+02
         vertex 5.160702e+01 9.239791e+01 1.411746e+02
      endloop
   endfacet
   facet normal 0.000000e+00 0.000000e+00 -1.000000e+00
      outer loop
         vertex 3.269822e+01 1.937869e+02 1.411746e+02
         vertex 1.347683e+02 2.311632e+02 1.411746e+02
         vertex 3.832406e+01 1.782491e+02 1.411746e+02
      endloop
   endfacet
   facet normal 0.000000e+00 0.000000e+00 -1.000000e+00
      outer loop
         vertex 3.832406e+01 1.782491e+02 1.411746e+02
         vertex 1.347683e+02 2.311632e+02 1.411746e+02
         vertex 1.376764e+02 2.107096e+02 1.411746e+02
      endloop
   endfacet
   facet normal 0.000000e+00 0.000000e+00 -1.000000e+00
      outer loop
         vertex 3.832406e+01 1.782491e+02 1.411746e+02
         vertex 1.376764e+02 2.107096e+02 1.411746e+02
         vertex 4.304700e+01 1.644265e+02 1.411746e+02
      endloop
   endfacet
   facet normal 0.000000e+00 0.000000e+00 -1.000000e+00
      outer loop
         vertex 4.304700e+01 1.644265e+02 1.411746e+02
         vertex 1.376764e+02 2.107096e+02 1.411746e+02
         vertex 1.390645e+02 1.955556e+02 1.411746e+02
      endloop
   endfacet
   facet normal 0.000000e+00 0.000000e+00 -1.000000e+00
      outer loop
         vertex 4.304700e+01 1.644265e+02 1.411746e+02
         vertex 1.390645e+02 1.955556e+02 1.411746e+02
         vertex 1.393833e+02 1.835176e+02 1.411746e+02
      endloop
   endfacet
   facet normal -0.000000e+00 0.000000e+00 -1.000000e+00
      outer loop
         vertex 1.345208e+02 4.883018e+01 1.411746e+02
         vertex 1.326563e+02 4.187171e+01 1.411746e+02
         vertex 5.249270e+01 5.600671e+01 1.411746e+02
      endloop
   endfacet
   facet normal 0.000000e+00 0.000000e+00 -1.000000e+00
      outer loop
         vertex 2.345338e+01 2.358747e+02 1.411746e+02
         vertex 2.311501e+01 2.469512e+02 1.411746e+02
         vertex 1.252161e+02 2.706438e+02 1.411746e+02
      endloop
   endfacet
   facet normal 0.000000e+00 0.000000e+00 -1.000000e+00
      outer loop
         vertex 1.252161e+02 2.706438e+02 1.411746e+02
         vertex 2.311501e+01 2.469512e+02 1.411746e+02
         vertex 2.347940e+01 2.592364e+02 1.411746e+02
      endloop
   endfacet
   facet normal 0.000000e+00 0.000000e+00 -1.000000e+00
      outer loop
         vertex 1.356797e+02 1.250589e+02 1.411746e+02
         vertex 1.348234e+02 1.013665e+02 1.411746e+02
         vertex 5.160702e+01 9.239791e+01 1.411746e+02
      endloop
   endfacet
   facet normal 0.000000e+00 0.000000e+00 -1.000000e+00
      outer loop
         vertex 5.160702e+01 9.239791e+01 1.411746e+02
         vertex 1.348234e+02 1.013665e+02 1.411746e+02
         vertex 1.347183e+02 7.641934e+01 1.411746e+02
      endloop
   endfacet
   facet normal 0.000000e+00 0.000000e+00 -1.000000e+00
      outer loop
         vertex 5.160702e+01 9.239791e+01 1.411746e+02
         vertex 1.347183e+02 7.641934e+01 1.411746e+02
         vertex 5.249270e+01 5.600671e+01 1.411746e+02
      endloop
   endfacet
   facet normal 0.000000e+00 0.000000e+00 -1.000000e+00
      outer loop
         vertex 5.249270e+01 5.600671e+01 1.411746e+02
         vertex 1.347183e+02 7.641934e+01 1.411746e+02
         vertex 1.351487e+02 5.600671e+01 1.411746e+02
      endloop
   endfacet
   facet normal 0.000000e+00 0.000000e+00 -1.000000e+00
      outer loop
         vertex 5.249270e+01 5.600671e+01 1.411746e+02
         vertex 1.351487e+02 5.600671e+01 1.411746e+02
         vertex 1.345208e+02 4.883018e+01 1.411746e+02
      endloop
   endfacet
   facet normal 0.000000e+00 -0.000000e+00 -1.000000e+00
      outer loop
         vertex 1.252161e+02 2.706438e+02 1.411746e+02
         vertex 1.257295e+02 2.692572e+02 1.411746e+02
         vertex 2.345338e+01 2.358747e+02 1.411746e+02
      endloop
   endfacet
   facet normal 0.000000e+00 0.000000e+00 -1.000000e+00
      outer loop
         vertex 2.345338e+01 2.358747e+02 1.411746e+02
         vertex 1.257295e+02 2.692572e+02 1.411746e+02
         vertex 1.286329e+02 2.601095e+02 1.411746e+02
      endloop
   endfacet
   facet normal 0.000000e+00 0.000000e+00 -1.000000e+00
      outer loop
         vertex 2.345338e+01 2.358747e+02 1.411746e+02
         vertex 1.286329e+02 2.601095e+02 1.411746e+02
         vertex 2.448903e+01 2.254527e+02 1.411746e+02
      endloop
   endfacet
   facet normal 0.000000e+00 0.000000e+00 -1.000000e+00
      outer loop
         vertex 2.448903e+01 2.254527e+02 1.411746e+02
         vertex 1.286329e+02 2.601095e+02 1.411746e+02
         vertex 1.316848e+02 2.475586e+02 1.411746e+02
      endloop
   endfacet
   facet normal 0.000000e+00 0.000000e+00 -1.000000e+00
      outer loop
         vertex 2.448903e+01 2.254527e+02 1.411746e+02
         vertex 1.316848e+02 2.475586e+02 1.411746e+02
         vertex 2.623890e+01 2.157090e+02 1.411746e+02
      endloop
   endfacet
   facet normal 0.000000e+00 0.000000e+00 -1.000000e+00
      outer loop
         vertex 2.623890e+01 2.157090e+02 1.411746e+02
         vertex 1.316848e+02 2.475586e+02 1.411746e+02
         vertex 1.347683e+02 2.311632e+02 1.411746e+02
      endloop
   endfacet
   facet normal 0.000000e+00 0.000000e+00 -1.000000e+00
      outer loop
         vertex 2.623890e+01 2.157090e+02 1.411746e+02
         vertex 1.347683e+02 2.311632e+02 1.411746e+02
         vertex 2.884070e+01 2.056841e+02 1.411746e+02
      endloop
   endfacet
   facet normal 0.000000e+00 0.000000e+00 -1.000000e+00
      outer loop
         vertex 2.884070e+01 2.056841e+02 1.411746e+02
         vertex 1.347683e+02 2.311632e+02 1.411746e+02
         vertex 3.269822e+01 1.937869e+02 1.411746e+02
      endloop
   endfacet
   facet normal 0.000000e+00 0.000000e+00 -1.000000e+00
      outer loop
         vertex 1.252161e+02 2.706438e+02 1.411746e+02
         vertex 3.975900e+01 3.010844e+02 1.411746e+02
         vertex 4.259295e+01 3.040553e+02 1.411746e+02
      endloop
   endfacet
   facet normal 0.000000e+00 0.000000e+00 -1.000000e+00
      outer loop
         vertex 8.664417e+01 1.530658e+01 1.411746e+02
         vertex 1.254798e+02 2.944159e+01 1.411746e+02
         vertex 9.382070e+01 1.467871e+01 1.411746e+02
      endloop
   endfacet
   facet normal 0.000000e+00 0.000000e+00 -1.000000e+00
      outer loop
         vertex 9.382070e+01 1.467871e+01 1.411746e+02
         vertex 1.254798e+02 2.944159e+01 1.411746e+02
         vertex 1.203858e+02 2.434763e+01 1.411746e+02
      endloop
   endfacet
   facet normal 0.000000e+00 0.000000e+00 -1.000000e+00
      outer loop
         vertex 1.203858e+02 2.434763e+01 1.411746e+02
         vertex 1.144847e+02 2.021562e+01 1.411746e+02
         vertex 9.382070e+01 1.467871e+01 1.411746e+02
      endloop
   endfacet
   facet normal 0.000000e+00 0.000000e+00 -1.000000e+00
      outer loop
         vertex 9.382070e+01 1.467871e+01 1.411746e+02
         vertex 1.144847e+02 2.021562e+01 1.411746e+02
         vertex 1.079557e+02 1.717110e+01 1.411746e+02
      endloop
   endfacet
   facet normal 0.000000e+00 0.000000e+00 -1.000000e+00
      outer loop
         vertex 9.382070e+01 1.467871e+01 1.411746e+02
         vertex 1.079557e+02 1.717110e+01 1.411746e+02
         vertex 1.009972e+02 1.530658e+01 1.411746e+02
      endloop
   endfacet
   facet normal 0.000000e+00 0.000000e+00 -1.000000e+00
      outer loop
         vertex 8.664417e+01 1.530658e+01 1.411746e+02
         vertex 7.968569e+01 1.717110e+01 1.411746e+02
         vertex 1.254798e+02 2.944159e+01 1.411746e+02
      endloop
   endfacet
   facet normal 0.000000e+00 0.000000e+00 -1.000000e+00
      outer loop
         vertex 1.254798e+02 2.944159e+01 1.411746e+02
         vertex 7.968569e+01 1.717110e+01 1.411746e+02
         vertex 7.315670e+01 2.021562e+01 1.411746e+02
      endloop
   endfacet
   facet normal 0.000000e+00 0.000000e+00 -1.000000e+00
      outer loop
         vertex 1.254798e+02 2.944159e+01 1.411746e+02
         vertex 7.315670e+01 2.021562e+01 1.411746e+02
         vertex 6.725557e+01 2.434763e+01 1.411746e+02
      endloop
   endfacet
   facet normal -0.000000e+00 0.000000e+00 -1.000000e+00
      outer loop
         vertex 1.326563e+02 4.187171e+01 1.411746e+02
         vertex 1.296118e+02 3.534271e+01 1.411746e+02
         vertex 5.249270e+01 5.600671e+01 1.411746e+02
      endloop
   endfacet
   facet normal 0.000000e+00 0.000000e+00 -1.000000e+00
      outer loop
         vertex 5.249270e+01 5.600671e+01 1.411746e+02
         vertex 1.296118e+02 3.534271e+01 1.411746e+02
         vertex 1.254798e+02 2.944159e+01 1.411746e+02
      endloop
   endfacet
   facet normal 0.000000e+00 0.000000e+00 -1.000000e+00
      outer loop
         vertex 5.249270e+01 5.600671e+01 1.411746e+02
         vertex 1.254798e+02 2.944159e+01 1.411746e+02
         vertex 5.312056e+01 4.883018e+01 1.411746e+02
      endloop
   endfacet
   facet normal 0.000000e+00 0.000000e+00 -1.000000e+00
      outer loop
         vertex 5.312056e+01 4.883018e+01 1.411746e+02
         vertex 1.254798e+02 2.944159e+01 1.411746e+02
         vertex 5.498508e+01 4.187171e+01 1.411746e+02
      endloop
   endfacet
   facet normal 0.000000e+00 0.000000e+00 -1.000000e+00
      outer loop
         vertex 2.347940e+01 2.592364e+02 1.411746e+02
         vertex 2.446957e+01 2.684483e+02 1.411746e+02
         vertex 1.252161e+02 2.706438e+02 1.411746e+02
      endloop
   endfacet
   facet normal -0.000000e+00 0.000000e+00 -1.000000e+00
      outer loop
         vertex 1.252161e+02 2.706438e+02 1.411746e+02
         vertex 2.446957e+01 2.684483e+02 1.411746e+02
         vertex 2.595823e+01 2.756516e+02 1.411746e+02
      endloop
   endfacet
   facet normal 0.000000e+00 0.000000e+00 -1.000000e+00
      outer loop
         vertex 1.252161e+02 2.706438e+02 1.411746e+02
         vertex 2.595823e+01 2.756516e+02 1.411746e+02
         vertex 2.804066e+01 2.821471e+02 1.411746e+02
      endloop
   endfacet
   facet normal -0.000000e+00 -0.000000e+00 -1.000000e+00
      outer loop
         vertex 1.131307e+02 2.926723e+02 1.411746e+02
         vertex 1.179437e+02 2.856279e+02 1.411746e+02
         vertex 4.259295e+01 3.040553e+02 1.411746e+02
      endloop
   endfacet
   facet normal 0.000000e+00 0.000000e+00 -1.000000e+00
      outer loop
         vertex 4.259295e+01 3.040553e+02 1.411746e+02
         vertex 1.179437e+02 2.856279e+02 1.411746e+02
         vertex 1.219559e+02 2.782616e+02 1.411746e+02
      endloop
   endfacet
   facet normal 0.000000e+00 0.000000e+00 -1.000000e+00
      outer loop
         vertex 4.259295e+01 3.040553e+02 1.411746e+02
         vertex 1.219559e+02 2.782616e+02 1.411746e+02
         vertex 1.252161e+02 2.706438e+02 1.411746e+02
      endloop
   endfacet
   facet normal 0.000000e+00 0.000000e+00 -1.000000e+00
      outer loop
         vertex 6.725557e+01 2.434763e+01 1.411746e+02
         vertex 6.216161e+01 2.944159e+01 1.411746e+02
         vertex 1.254798e+02 2.944159e+01 1.411746e+02
      endloop
   endfacet
   facet normal 0.000000e+00 0.000000e+00 -1.000000e+00
      outer loop
         vertex 1.254798e+02 2.944159e+01 1.411746e+02
         vertex 6.216161e+01 2.944159e+01 1.411746e+02
         vertex 5.802960e+01 3.534271e+01 1.411746e+02
      endloop
   endfacet
   facet normal 0.000000e+00 0.000000e+00 -1.000000e+00
      outer loop
         vertex 1.254798e+02 2.944159e+01 1.411746e+02
         vertex 5.802960e+01 3.534271e+01 1.411746e+02
         vertex 5.498508e+01 4.187171e+01 1.411746e+02
      endloop
   endfacet
   facet normal 0.000000e+00 0.000000e+00 -1.000000e+00
      outer loop
         vertex 2.804066e+01 2.821471e+02 1.411746e+02
         vertex 3.117334e+01 2.889292e+02 1.411746e+02
         vertex 1.252161e+02 2.706438e+02 1.411746e+02
      endloop
   endfacet
   facet normal 0.000000e+00 0.000000e+00 -1.000000e+00
      outer loop
         vertex 1.252161e+02 2.706438e+02 1.411746e+02
         vertex 3.117334e+01 2.889292e+02 1.411746e+02
         vertex 3.504325e+01 2.951543e+02 1.411746e+02
      endloop
   endfacet
   facet normal 0.000000e+00 0.000000e+00 -1.000000e+00
      outer loop
         vertex 1.252161e+02 2.706438e+02 1.411746e+02
         vertex 3.504325e+01 2.951543e+02 1.411746e+02
         vertex 3.975900e+01 3.010844e+02 1.411746e+02
      endloop
   endfacet
   facet normal 0.000000e+00 -0.000000e+00 -1.000000e+00
      outer loop
         vertex 9.614385e+01 3.093519e+02 1.411746e+02
         vertex 1.018709e+02 3.048312e+02 1.411746e+02
         vertex 4.259295e+01 3.040553e+02 1.411746e+02
      endloop
   endfacet
   facet normal 0.000000e+00 0.000000e+00 -1.000000e+00
      outer loop
         vertex 4.259295e+01 3.040553e+02 1.411746e+02
         vertex 1.018709e+02 3.048312e+02 1.411746e+02
         vertex 1.077758e+02 2.990664e+02 1.411746e+02
      endloop
   endfacet
   facet normal 0.000000e+00 0.000000e+00 -1.000000e+00
      outer loop
         vertex 4.259295e+01 3.040553e+02 1.411746e+02
         vertex 1.077758e+02 2.990664e+02 1.411746e+02
         vertex 1.131307e+02 2.926723e+02 1.411746e+02
      endloop
   endfacet
   facet normal -0.000000e+00 0.000000e+00 -1.000000e+00
      outer loop
         vertex 9.614385e+01 3.093519e+02 1.411746e+02
         vertex 4.259295e+01 3.040553e+02 1.411746e+02
         vertex 9.048093e+01 3.128815e+02 1.411746e+02
      endloop
   endfacet
   facet normal 0.000000e+00 0.000000e+00 -1.000000e+00
      outer loop
         vertex 9.048093e+01 3.128815e+02 1.411746e+02
         vertex 4.259295e+01 3.040553e+02 1.411746e+02
         vertex 4.822320e+01 3.089485e+02 1.411746e+02
      endloop
   endfacet
   facet normal -0.000000e+00 0.000000e+00 -1.000000e+00
      outer loop
         vertex 9.048093e+01 3.128815e+02 1.411746e+02
         vertex 4.822320e+01 3.089485e+02 1.411746e+02
         vertex 8.496237e+01 3.154519e+02 1.411746e+02
      endloop
   endfacet
   facet normal 0.000000e+00 0.000000e+00 -1.000000e+00
      outer loop
         vertex 4.822320e+01 3.089485e+02 1.411746e+02
         vertex 5.413975e+01 3.128727e+02 1.411746e+02
         vertex 8.496237e+01 3.154519e+02 1.411746e+02
      endloop
   endfacet
   facet normal 0.000000e+00 0.000000e+00 -1.000000e+00
      outer loop
         vertex 8.496237e+01 3.154519e+02 1.411746e+02
         vertex 5.413975e+01 3.128727e+02 1.411746e+02
         vertex 5.943584e+01 3.154370e+02 1.411746e+02
      endloop
   endfacet
   facet normal -0.000000e+00 0.000000e+00 -1.000000e+00
      outer loop
         vertex 8.496237e+01 3.154519e+02 1.411746e+02
         vertex 5.943584e+01 3.154370e+02 1.411746e+02
         vertex 7.962020e+01 3.171162e+02 1.411746e+02
      endloop
   endfacet
   facet normal 0.000000e+00 0.000000e+00 -1.000000e+00
      outer loop
         vertex 7.962020e+01 3.171162e+02 1.411746e+02
         vertex 5.943584e+01 3.154370e+02 1.411746e+02
         vertex 6.459241e+01 3.171017e+02 1.411746e+02
      endloop
   endfacet
   facet normal -0.000000e+00 0.000000e+00 -1.000000e+00
      outer loop
         vertex 7.962020e+01 3.171162e+02 1.411746e+02
         vertex 6.459241e+01 3.171017e+02 1.411746e+02
         vertex 7.455288e+01 3.179160e+02 1.411746e+02
      endloop
   endfacet
   facet normal 0.000000e+00 0.000000e+00 -1.000000e+00
      outer loop
         vertex 7.455288e+01 3.179160e+02 1.411746e+02
         vertex 6.459241e+01 3.171017e+02 1.411746e+02
         vertex 6.955755e+01 3.179139e+02 1.411746e+02
      endloop
   endfacet
   facet normal 0.000000e+00 -0.000000e+00 1.000000e+00
      outer loop
         vertex 1.348234e+02 1.013665e+02 1.611746e+02
         vertex 1.349400e+02 1.064169e+02 1.611746e+02
         vertex 5.108662e+01 1.064169e+02 1.611746e+02
      endloop
   endfacet
   facet normal 0.000000e+00 0.000000e+00 1.000000e+00
      outer loop
         vertex 1.348234e+02 1.013665e+02 1.611746e+02
         vertex 5.108662e+01 1.064169e+02 1.611746e+02
         vertex 1.347183e+02 7.641934e+01 1.611746e+02
      endloop
   endfacet
   facet normal 0.000000e+00 0.000000e+00 1.000000e+00
      outer loop
         vertex 1.347183e+02 7.641934e+01 1.611746e+02
         vertex 5.108662e+01 1.064169e+02 1.611746e+02
         vertex 5.160702e+01 9.239791e+01 1.611746e+02
      endloop
   endfacet
   facet normal 0.000000e+00 0.000000e+00 1.000000e+00
      outer loop
         vertex 1.347183e+02 7.641934e+01 1.611746e+02
         vertex 5.160702e+01 9.239791e+01 1.611746e+02
         vertex 1.351487e+02 5.600671e+01 1.611746e+02
      endloop
   endfacet
   facet normal 0.000000e+00 0.000000e+00 1.000000e+00
      outer loop
         vertex 1.351487e+02 5.600671e+01 1.611746e+02
         vertex 5.160702e+01 9.239791e+01 1.611746e+02
         vertex 5.249270e+01 5.600671e+01 1.611746e+02
      endloop
   endfacet
   facet normal 0.000000e+00 0.000000e+00 1.000000e+00
      outer loop
         vertex 1.351487e+02 5.600671e+01 1.611746e+02
         vertex 5.249270e+01 5.600671e+01 1.611746e+02
         vertex 5.312056e+01 4.883018e+01 1.611746e+02
      endloop
   endfacet
   facet normal -0.000000e+00 0.000000e+00 1.000000e+00
      outer loop
         vertex 5.312056e+01 4.883018e+01 1.611746e+02
         vertex 5.498508e+01 4.187171e+01 1.611746e+02
         vertex 1.351487e+02 5.600671e+01 1.611746e+02
      endloop
   endfacet
   facet normal 0.000000e+00 0.000000e+00 1.000000e+00
      outer loop
         vertex 1.351487e+02 5.600671e+01 1.611746e+02
         vertex 5.498508e+01 4.187171e+01 1.611746e+02
         vertex 5.802960e+01 3.534271e+01 1.611746e+02
      endloop
   endfacet
   facet normal 0.000000e+00 0.000000e+00 1.000000e+00
      outer loop
         vertex 1.351487e+02 5.600671e+01 1.611746e+02
         vertex 5.802960e+01 3.534271e+01 1.611746e+02
         vertex 6.216161e+01 2.944159e+01 1.611746e+02
      endloop
   endfacet
   facet normal 0.000000e+00 0.000000e+00 1.000000e+00
      outer loop
         vertex 1.351487e+02 5.600671e+01 1.611746e+02
         vertex 1.009972e+02 1.530658e+01 1.611746e+02
         vertex 1.079557e+02 1.717110e+01 1.611746e+02
      endloop
   endfacet
   facet normal 0.000000e+00 0.000000e+00 1.000000e+00
      outer loop
         vertex 1.079557e+02 1.717110e+01 1.611746e+02
         vertex 1.144847e+02 2.021562e+01 1.611746e+02
         vertex 1.351487e+02 5.600671e+01 1.611746e+02
      endloop
   endfacet
   facet normal 0.000000e+00 0.000000e+00 1.000000e+00
      outer loop
         vertex 1.351487e+02 5.600671e+01 1.611746e+02
         vertex 1.144847e+02 2.021562e+01 1.611746e+02
         vertex 1.203858e+02 2.434763e+01 1.611746e+02
      endloop
   endfacet
   facet normal 0.000000e+00 0.000000e+00 1.000000e+00
      outer loop
         vertex 1.351487e+02 5.600671e+01 1.611746e+02
         vertex 1.203858e+02 2.434763e+01 1.611746e+02
         vertex 1.254798e+02 2.944159e+01 1.611746e+02
      endloop
   endfacet
   facet normal -0.000000e+00 0.000000e+00 1.000000e+00
      outer loop
         vertex 7.968569e+01 1.717110e+01 1.611746e+02
         vertex 8.664417e+01 1.530658e+01 1.611746e+02
         vertex 1.351487e+02 5.600671e+01 1.611746e+02
      endloop
   endfacet
   facet normal 0.000000e+00 0.000000e+00 1.000000e+00
      outer loop
         vertex 1.351487e+02 5.600671e+01 1.611746e+02
         vertex 8.664417e+01 1.530658e+01 1.611746e+02
         vertex 9.382070e+01 1.467871e+01 1.611746e+02
      endloop
   endfacet
   facet normal 0.000000e+00 0.000000e+00 1.000000e+00
      outer loop
         vertex 1.351487e+02 5.600671e+01 1.611746e+02
         vertex 9.382070e+01 1.467871e+01 1.611746e+02
         vertex 1.009972e+02 1.530658e+01 1.611746e+02
      endloop
   endfacet
   facet normal 0.000000e+00 -0.000000e+00 1.000000e+00
      outer loop
         vertex 1.296118e+02 3.534271e+01 1.611746e+02
         vertex 1.326563e+02 4.187171e+01 1.611746e+02
         vertex 1.254798e+02 2.944159e+01 1.611746e+02
      endloop
   endfacet
   facet normal 0.000000e+00 0.000000e+00 1.000000e+00
      outer loop
         vertex 1.254798e+02 2.944159e+01 1.611746e+02
         vertex 1.326563e+02 4.187171e+01 1.611746e+02
         vertex 1.345208e+02 4.883018e+01 1.611746e+02
      endloop
   endfacet
   facet normal 0.000000e+00 0.000000e+00 1.000000e+00
      outer loop
         vertex 1.254798e+02 2.944159e+01 1.611746e+02
         vertex 1.345208e+02 4.883018e+01 1.611746e+02
         vertex 1.351487e+02 5.600671e+01 1.611746e+02
      endloop
   endfacet
   facet normal -0.000000e+00 0.000000e+00 1.000000e+00
      outer loop
         vertex 6.216161e+01 2.944159e+01 1.611746e+02
         vertex 6.725557e+01 2.434763e+01 1.611746e+02
         vertex 1.351487e+02 5.600671e+01 1.611746e+02
      endloop
   endfacet
   facet normal 0.000000e+00 0.000000e+00 1.000000e+00
      outer loop
         vertex 1.351487e+02 5.600671e+01 1.611746e+02
         vertex 6.725557e+01 2.434763e+01 1.611746e+02
         vertex 7.315670e+01 2.021562e+01 1.611746e+02
      endloop
   endfacet
   facet normal 0.000000e+00 0.000000e+00 1.000000e+00
      outer loop
         vertex 1.351487e+02 5.600671e+01 1.611746e+02
         vertex 7.315670e+01 2.021562e+01 1.611746e+02
         vertex 7.968569e+01 1.717110e+01 1.611746e+02
      endloop
   endfacet
   facet normal 0.000000e+00 1.190339e-01 9.928902e-01
      outer loop
         vertex 4.791709e+01 1.435540e+02 1.588062e+02
         vertex 4.828911e+01 1.410558e+02 1.591057e+02
         vertex 1.366854e+02 1.410558e+02 1.591057e+02
      endloop
   endfacet
   facet normal 0.000000e+00 1.190340e-01 9.928902e-01
      outer loop
         vertex 1.393148e+02 1.899528e+02 1.532436e+02
         vertex 3.405640e+01 1.899528e+02 1.532436e+02
         vertex 3.832406e+01 1.782491e+02 1.546467e+02
      endloop
   endfacet
   facet normal 3.464061e-09 1.190340e-01 9.928902e-01
      outer loop
         vertex 3.832406e+01 1.782491e+02 1.546467e+02
         vertex 4.076943e+01 1.713593e+02 1.554727e+02
         vertex 1.393148e+02 1.899528e+02 1.532436e+02
      endloop
   endfacet
   facet normal 5.339683e-09 1.190340e-01 9.928902e-01
      outer loop
         vertex 1.393148e+02 1.899528e+02 1.532436e+02
         vertex 4.076943e+01 1.713593e+02 1.554727e+02
         vertex 4.304700e+01 1.644265e+02 1.563038e+02
      endloop
   endfacet
   facet normal -3.130686e-08 1.190341e-01 9.928902e-01
      outer loop
         vertex 1.393148e+02 1.899528e+02 1.532436e+02
         vertex 4.304700e+01 1.644265e+02 1.563038e+02
         vertex 1.393833e+02 1.835176e+02 1.540151e+02
      endloop
   endfacet
   facet normal -2.022888e-08 1.190341e-01 9.928902e-01
      outer loop
         vertex 1.393833e+02 1.835176e+02 1.540151e+02
         vertex 4.304700e+01 1.644265e+02 1.563038e+02
         vertex 4.460531e+01 1.591098e+02 1.569412e+02
      endloop
   endfacet
   facet normal 6.049268e-09 1.190340e-01 9.928902e-01
      outer loop
         vertex 1.393833e+02 1.835176e+02 1.540151e+02
         vertex 4.460531e+01 1.591098e+02 1.569412e+02
         vertex 1.392376e+02 1.772543e+02 1.547660e+02
      endloop
   endfacet
   facet normal 1.384381e-08 1.190340e-01 9.928902e-01
      outer loop
         vertex 1.392376e+02 1.772543e+02 1.547660e+02
         vertex 4.460531e+01 1.591098e+02 1.569412e+02
         vertex 4.596509e+01 1.537422e+02 1.575847e+02
      endloop
   endfacet
   facet normal 2.966059e-08 1.190339e-01 9.928902e-01
      outer loop
         vertex 1.392376e+02 1.772543e+02 1.547660e+02
         vertex 4.596509e+01 1.537422e+02 1.575847e+02
         vertex 1.389305e+02 1.709957e+02 1.555163e+02
      endloop
   endfacet
   facet normal -1.944556e-08 1.190341e-01 9.928902e-01
      outer loop
         vertex 1.389305e+02 1.709957e+02 1.555163e+02
         vertex 4.596509e+01 1.537422e+02 1.575847e+02
         vertex 4.703149e+01 1.486713e+02 1.581927e+02
      endloop
   endfacet
   facet normal 1.483503e-09 1.190341e-01 9.928902e-01
      outer loop
         vertex 1.389305e+02 1.709957e+02 1.555163e+02
         vertex 4.703149e+01 1.486713e+02 1.581927e+02
         vertex 1.381715e+02 1.603020e+02 1.567983e+02
      endloop
   endfacet
   facet normal 1.416006e-08 1.190340e-01 9.928902e-01
      outer loop
         vertex 1.381715e+02 1.603020e+02 1.567983e+02
         vertex 4.703149e+01 1.486713e+02 1.581927e+02
         vertex 4.791709e+01 1.435540e+02 1.588062e+02
      endloop
   endfacet
   facet normal 1.578027e-08 1.190340e-01 9.928902e-01
      outer loop
         vertex 1.381715e+02 1.603020e+02 1.567983e+02
         vertex 4.791709e+01 1.435540e+02 1.588062e+02
         vertex 1.373228e+02 1.496110e+02 1.580800e+02
      endloop
   endfacet
   facet normal 4.955598e-09 1.190341e-01 9.928902e-01
      outer loop
         vertex 1.373228e+02 1.496110e+02 1.580800e+02
         vertex 4.791709e+01 1.435540e+02 1.588062e+02
         vertex 1.366854e+02 1.410558e+02 1.591057e+02
      endloop
   endfacet
   facet normal 0.000000e+00 0.000000e+00 1.000000e+00
      outer loop
         vertex 2.311501e+01 2.469512e+02 1.511746e+02
         vertex 2.345338e+01 2.358747e+02 1.511746e+02
         vertex 8.020405e+01 2.245917e+02 1.511746e+02
      endloop
   endfacet
   facet normal 0.000000e+00 0.000000e+00 1.000000e+00
      outer loop
         vertex 8.020405e+01 2.245917e+02 1.511746e+02
         vertex 2.345338e+01 2.358747e+02 1.511746e+02
         vertex 2.448903e+01 2.254527e+02 1.511746e+02
      endloop
   endfacet
   facet normal 0.000000e+00 0.000000e+00 1.000000e+00
      outer loop
         vertex 8.020405e+01 2.245917e+02 1.511746e+02
         vertex 2.448903e+01 2.254527e+02 1.511746e+02
         vertex 2.461100e+01 2.245917e+02 1.511746e+02
      endloop
   endfacet
   facet normal 0.000000e+00 0.000000e+00 1.000000e+00
      outer loop
         vertex 1.357971e+02 2.245917e+02 1.511746e+02
         vertex 1.347683e+02 2.311632e+02 1.511746e+02
         vertex 8.020405e+01 2.245917e+02 1.511746e+02
      endloop
   endfacet
   facet normal 0.000000e+00 0.000000e+00 1.000000e+00
      outer loop
         vertex 8.020405e+01 2.245917e+02 1.511746e+02
         vertex 1.347683e+02 2.311632e+02 1.511746e+02
         vertex 1.316848e+02 2.475586e+02 1.511746e+02
      endloop
   endfacet
   facet normal 0.000000e+00 0.000000e+00 1.000000e+00
      outer loop
         vertex 8.020405e+01 2.245917e+02 1.511746e+02
         vertex 1.316848e+02 2.475586e+02 1.511746e+02
         vertex 1.286329e+02 2.601095e+02 1.511746e+02
      endloop
   endfacet
   facet normal 0.000000e+00 0.000000e+00 1.000000e+00
      outer loop
         vertex 1.286329e+02 2.601095e+02 1.511746e+02
         vertex 1.257295e+02 2.692572e+02 1.511746e+02
         vertex 8.020405e+01 2.245917e+02 1.511746e+02
      endloop
   endfacet
   facet normal 0.000000e+00 0.000000e+00 1.000000e+00
      outer loop
         vertex 8.020405e+01 2.245917e+02 1.511746e+02
         vertex 1.257295e+02 2.692572e+02 1.511746e+02
         vertex 1.252161e+02 2.706438e+02 1.511746e+02
      endloop
   endfacet
   facet normal 0.000000e+00 0.000000e+00 1.000000e+00
      outer loop
         vertex 8.020405e+01 2.245917e+02 1.511746e+02
         vertex 1.252161e+02 2.706438e+02 1.511746e+02
         vertex 1.219559e+02 2.782616e+02 1.511746e+02
      endloop
   endfacet
   facet normal 0.000000e+00 0.000000e+00 1.000000e+00
      outer loop
         vertex 2.595823e+01 2.756516e+02 1.511746e+02
         vertex 2.446957e+01 2.684483e+02 1.511746e+02
         vertex 8.020405e+01 2.245917e+02 1.511746e+02
      endloop
   endfacet
   facet normal 0.000000e+00 0.000000e+00 1.000000e+00
      outer loop
         vertex 8.020405e+01 2.245917e+02 1.511746e+02
         vertex 2.446957e+01 2.684483e+02 1.511746e+02
         vertex 2.347940e+01 2.592364e+02 1.511746e+02
      endloop
   endfacet
   facet normal 0.000000e+00 0.000000e+00 1.000000e+00
      outer loop
         vertex 8.020405e+01 2.245917e+02 1.511746e+02
         vertex 2.347940e+01 2.592364e+02 1.511746e+02
         vertex 2.311501e+01 2.469512e+02 1.511746e+02
      endloop
   endfacet
   facet normal 0.000000e+00 0.000000e+00 1.000000e+00
      outer loop
         vertex 5.413975e+01 3.128727e+02 1.511746e+02
         vertex 4.822320e+01 3.089485e+02 1.511746e+02
         vertex 8.020405e+01 2.245917e+02 1.511746e+02
      endloop
   endfacet
   facet normal 0.000000e+00 0.000000e+00 1.000000e+00
      outer loop
         vertex 1.219559e+02 2.782616e+02 1.511746e+02
         vertex 1.179437e+02 2.856279e+02 1.511746e+02
         vertex 8.020405e+01 2.245917e+02 1.511746e+02
      endloop
   endfacet
   facet normal 0.000000e+00 0.000000e+00 1.000000e+00
      outer loop
         vertex 8.020405e+01 2.245917e+02 1.511746e+02
         vertex 1.179437e+02 2.856279e+02 1.511746e+02
         vertex 1.131307e+02 2.926723e+02 1.511746e+02
      endloop
   endfacet
   facet normal 0.000000e+00 0.000000e+00 1.000000e+00
      outer loop
         vertex 8.020405e+01 2.245917e+02 1.511746e+02
         vertex 1.131307e+02 2.926723e+02 1.511746e+02
         vertex 1.077758e+02 2.990664e+02 1.511746e+02
      endloop
   endfacet
   facet normal -0.000000e+00 0.000000e+00 1.000000e+00
      outer loop
         vertex 5.413975e+01 3.128727e+02 1.511746e+02
         vertex 8.020405e+01 2.245917e+02 1.511746e+02
         vertex 5.943584e+01 3.154370e+02 1.511746e+02
      endloop
   endfacet
   facet normal 0.000000e+00 0.000000e+00 1.000000e+00
      outer loop
         vertex 4.822320e+01 3.089485e+02 1.511746e+02
         vertex 4.259295e+01 3.040553e+02 1.511746e+02
         vertex 8.020405e+01 2.245917e+02 1.511746e+02
      endloop
   endfacet
   facet normal 0.000000e+00 0.000000e+00 1.000000e+00
      outer loop
         vertex 8.020405e+01 2.245917e+02 1.511746e+02
         vertex 4.259295e+01 3.040553e+02 1.511746e+02
         vertex 3.975900e+01 3.010844e+02 1.511746e+02
      endloop
   endfacet
   facet normal 0.000000e+00 0.000000e+00 1.000000e+00
      outer loop
         vertex 8.020405e+01 2.245917e+02 1.511746e+02
         vertex 3.975900e+01 3.010844e+02 1.511746e+02
         vertex 3.504325e+01 2.951543e+02 1.511746e+02
      endloop
   endfacet
   facet normal 0.000000e+00 0.000000e+00 1.000000e+00
      outer loop
         vertex 3.504325e+01 2.951543e+02 1.511746e+02
         vertex 3.117334e+01 2.889292e+02 1.511746e+02
         vertex 8.020405e+01 2.245917e+02 1.511746e+02
      endloop
   endfacet
   facet normal 0.000000e+00 0.000000e+00 1.000000e+00
      outer loop
         vertex 8.020405e+01 2.245917e+02 1.511746e+02
         vertex 3.117334e+01 2.889292e+02 1.511746e+02
         vertex 2.804066e+01 2.821471e+02 1.511746e+02
      endloop
   endfacet
   facet normal 0.000000e+00 0.000000e+00 1.000000e+00
      outer loop
         vertex 8.020405e+01 2.245917e+02 1.511746e+02
         vertex 2.804066e+01 2.821471e+02 1.511746e+02
         vertex 2.595823e+01 2.756516e+02 1.511746e+02
      endloop
   endfacet
   facet normal 0.000000e+00 0.000000e+00 1.000000e+00
      outer loop
         vertex 1.077758e+02 2.990664e+02 1.511746e+02
         vertex 1.018709e+02 3.048312e+02 1.511746e+02
         vertex 8.020405e+01 2.245917e+02 1.511746e+02
      endloop
   endfacet
   facet normal 0.000000e+00 0.000000e+00 1.000000e+00
      outer loop
         vertex 8.020405e+01 2.245917e+02 1.511746e+02
         vertex 1.018709e+02 3.048312e+02 1.511746e+02
         vertex 9.614385e+01 3.093519e+02 1.511746e+02
      endloop
   endfacet
   facet normal 0.000000e+00 0.000000e+00 1.000000e+00
      outer loop
         vertex 8.020405e+01 2.245917e+02 1.511746e+02
         vertex 9.614385e+01 3.093519e+02 1.511746e+02
         vertex 9.048093e+01 3.128815e+02 1.511746e+02
      endloop
   endfacet
   facet normal 0.000000e+00 0.000000e+00 1.000000e+00
      outer loop
         vertex 9.048093e+01 3.128815e+02 1.511746e+02
         vertex 8.496237e+01 3.154519e+02 1.511746e+02
         vertex 8.020405e+01 2.245917e+02 1.511746e+02
      endloop
   endfacet
   facet normal 0.000000e+00 -0.000000e+00 1.000000e+00
      outer loop
         vertex 8.020405e+01 2.245917e+02 1.511746e+02
         vertex 8.496237e+01 3.154519e+02 1.511746e+02
         vertex 7.962020e+01 3.171162e+02 1.511746e+02
      endloop
   endfacet
   facet normal 0.000000e+00 0.000000e+00 1.000000e+00
      outer loop
         vertex 8.020405e+01 2.245917e+02 1.511746e+02
         vertex 7.962020e+01 3.171162e+02 1.511746e+02
         vertex 7.455288e+01 3.179160e+02 1.511746e+02
      endloop
   endfacet
   facet normal 0.000000e+00 0.000000e+00 1.000000e+00
      outer loop
         vertex 7.455288e+01 3.179160e+02 1.511746e+02
         vertex 6.955755e+01 3.179139e+02 1.511746e+02
         vertex 8.020405e+01 2.245917e+02 1.511746e+02
      endloop
   endfacet
   facet normal 0.000000e+00 0.000000e+00 1.000000e+00
      outer loop
         vertex 8.020405e+01 2.245917e+02 1.511746e+02
         vertex 6.955755e+01 3.179139e+02 1.511746e+02
         vertex 6.459241e+01 3.171017e+02 1.511746e+02
      endloop
   endfacet
   facet normal 0.000000e+00 0.000000e+00 1.000000e+00
      outer loop
         vertex 8.020405e+01 2.245917e+02 1.511746e+02
         vertex 6.459241e+01 3.171017e+02 1.511746e+02
         vertex 5.943584e+01 3.154370e+02 1.511746e+02
      endloop
   endfacet
   facet normal -7.995480e-03 5.419290e-02 9.984985e-01
      outer loop
         vertex 2.745599e+01 2.106712e+02 1.515078e+02
         vertex 2.884070e+01 2.056841e+02 1.517895e+02
         vertex 8.020405e+01 2.245917e+02 1.511746e+02
      endloop
   endfacet
   facet normal -1.848527e-04 7.518342e-02 9.971697e-01
      outer loop
         vertex 2.884070e+01 2.056841e+02 1.517895e+02
         vertex 3.069513e+01 1.997117e+02 1.522402e+02
         vertex 1.380700e+02 2.072439e+02 1.516922e+02
      endloop
   endfacet
   facet normal -1.594164e-03 9.514933e-02 9.954617e-01
      outer loop
         vertex 1.380700e+02 2.072439e+02 1.516922e+02
         vertex 3.069513e+01 1.997117e+02 1.522402e+02
         vertex 3.269822e+01 1.937869e+02 1.528097e+02
      endloop
   endfacet
   facet normal 2.041102e-03 6.687511e-02 9.977593e-01
      outer loop
         vertex 1.380700e+02 2.072439e+02 1.516922e+02
         vertex 3.269822e+01 1.937869e+02 1.528097e+02
         vertex 1.384831e+02 2.031381e+02 1.519665e+02
      endloop
   endfacet
   facet normal 2.693389e-04 8.678001e-02 9.962275e-01
      outer loop
         vertex 1.384831e+02 2.031381e+02 1.519665e+02
         vertex 3.269822e+01 1.937869e+02 1.528097e+02
         vertex 1.390645e+02 1.955556e+02 1.526269e+02
      endloop
   endfacet
   facet normal -1.609476e-04 1.123920e-01 9.936639e-01
      outer loop
         vertex 1.390645e+02 1.955556e+02 1.526269e+02
         vertex 3.269822e+01 1.937869e+02 1.528097e+02
         vertex 3.405640e+01 1.899528e+02 1.532436e+02
      endloop
   endfacet
   facet normal 0.000000e+00 1.094121e-01 9.939965e-01
      outer loop
         vertex 1.390645e+02 1.955556e+02 1.526269e+02
         vertex 3.405640e+01 1.899528e+02 1.532436e+02
         vertex 1.393148e+02 1.899528e+02 1.532436e+02
      endloop
   endfacet
   facet normal 0.000000e+00 1.192669e-02 9.999289e-01
      outer loop
         vertex 1.357971e+02 2.245917e+02 1.511746e+02
         vertex 8.020405e+01 2.245917e+02 1.511746e+02
         vertex 1.367872e+02 2.176508e+02 1.512574e+02
      endloop
   endfacet
   facet normal 1.894088e-03 2.736405e-02 9.996237e-01
      outer loop
         vertex 1.367872e+02 2.176508e+02 1.512574e+02
         vertex 8.020405e+01 2.245917e+02 1.511746e+02
         vertex 2.884070e+01 2.056841e+02 1.517895e+02
      endloop
   endfacet
   facet normal 9.462798e-04 3.590182e-02 9.993549e-01
      outer loop
         vertex 1.367872e+02 2.176508e+02 1.512574e+02
         vertex 2.884070e+01 2.056841e+02 1.517895e+02
         vertex 1.376764e+02 2.107096e+02 1.515059e+02
      endloop
   endfacet
   facet normal 1.235509e-04 5.367423e-02 9.985585e-01
      outer loop
         vertex 1.376764e+02 2.107096e+02 1.515059e+02
         vertex 2.884070e+01 2.056841e+02 1.517895e+02
         vertex 1.380700e+02 2.072439e+02 1.516922e+02
      endloop
   endfacet
   facet normal -0.000000e+00 7.673222e-03 9.999706e-01
      outer loop
         vertex 2.461100e+01 2.245917e+02 1.511746e+02
         vertex 2.534313e+01 2.201260e+02 1.512089e+02
         vertex 8.020405e+01 2.245917e+02 1.511746e+02
      endloop
   endfacet
   facet normal -1.222365e-03 2.268827e-02 9.997418e-01
      outer loop
         vertex 8.020405e+01 2.245917e+02 1.511746e+02
         vertex 2.534313e+01 2.201260e+02 1.512089e+02
         vertex 2.623890e+01 2.157090e+02 1.513102e+02
      endloop
   endfacet
   facet normal -3.788051e-03 3.826822e-02 9.992603e-01
      outer loop
         vertex 8.020405e+01 2.245917e+02 1.511746e+02
         vertex 2.623890e+01 2.157090e+02 1.513102e+02
         vertex 2.745599e+01 2.106712e+02 1.515078e+02
      endloop
   endfacet
   facet normal 1.487072e-04 7.781812e-02 9.969676e-01
      outer loop
         vertex 1.356797e+02 1.250589e+02 1.605769e+02
         vertex 1.361471e+02 1.330657e+02 1.599518e+02
         vertex 4.936819e+01 1.319905e+02 1.600487e+02
      endloop
   endfacet
   facet normal -1.949956e-04 1.053283e-01 9.944375e-01
      outer loop
         vertex 4.936819e+01 1.319905e+02 1.600487e+02
         vertex 1.361471e+02 1.330657e+02 1.599518e+02
         vertex 1.366854e+02 1.410558e+02 1.591057e+02
      endloop
   endfacet
   facet normal 0.000000e+00 1.034704e-01 9.946325e-01
      outer loop
         vertex 4.936819e+01 1.319905e+02 1.600487e+02
         vertex 1.366854e+02 1.410558e+02 1.591057e+02
         vertex 4.828911e+01 1.410558e+02 1.591057e+02
      endloop
   endfacet
   facet normal 0.000000e+00 2.057915e-02 9.997882e-01
      outer loop
         vertex 5.044056e+01 1.183915e+02 1.609281e+02
         vertex 5.108662e+01 1.064169e+02 1.611746e+02
         vertex 1.349400e+02 1.064169e+02 1.611746e+02
      endloop
   endfacet
   facet normal 1.977230e-05 7.622203e-02 9.970909e-01
      outer loop
         vertex 4.936819e+01 1.319905e+02 1.600487e+02
         vertex 4.996302e+01 1.252004e+02 1.605678e+02
         vertex 1.356797e+02 1.250589e+02 1.605769e+02
      endloop
   endfacet
   facet normal -1.897735e-05 5.285116e-02 9.986024e-01
      outer loop
         vertex 1.356797e+02 1.250589e+02 1.605769e+02
         vertex 4.996302e+01 1.252004e+02 1.605678e+02
         vertex 5.044056e+01 1.183915e+02 1.609281e+02
      endloop
   endfacet
   facet normal 3.570482e-04 4.805666e-02 9.988445e-01
      outer loop
         vertex 1.356797e+02 1.250589e+02 1.605769e+02
         vertex 5.044056e+01 1.183915e+02 1.609281e+02
         vertex 1.352478e+02 1.157499e+02 1.610249e+02
      endloop
   endfacet
   facet normal -6.407517e-04 1.605933e-02 9.998708e-01
      outer loop
         vertex 1.352478e+02 1.157499e+02 1.610249e+02
         vertex 5.044056e+01 1.183915e+02 1.609281e+02
         vertex 1.349400e+02 1.064169e+02 1.611746e+02
      endloop
   endfacet
   facet normal 0.000000e+00 -0.000000e+00 1.000000e+00
      outer loop
         vertex 4.704005e+01 1.486117e+02 1.421746e+02
         vertex 8.597839e+01 1.605821e+02 1.421746e+02
         vertex 4.547054e+01 1.558096e+02 1.421746e+02
      endloop
   endfacet
   facet normal 0.000000e+00 0.000000e+00 1.000000e+00
      outer loop
         vertex 4.547054e+01 1.558096e+02 1.421746e+02
         vertex 8.597839e+01 1.605821e+02 1.421746e+02
         vertex 8.435489e+01 1.666595e+02 1.421746e+02
      endloop
   endfacet
   facet normal 0.000000e+00 -0.000000e+00 1.000000e+00
      outer loop
         vertex 4.547054e+01 1.558096e+02 1.421746e+02
         vertex 8.435489e+01 1.666595e+02 1.421746e+02
         vertex 4.340900e+01 1.632749e+02 1.421746e+02
      endloop
   endfacet
   facet normal 0.000000e+00 0.000000e+00 1.000000e+00
      outer loop
         vertex 7.708406e+01 1.831592e+02 1.421746e+02
         vertex 4.037526e+01 1.725435e+02 1.421746e+02
         vertex 7.989396e+01 1.779536e+02 1.421746e+02
      endloop
   endfacet
   facet normal 0.000000e+00 0.000000e+00 1.000000e+00
      outer loop
         vertex 7.989396e+01 1.779536e+02 1.421746e+02
         vertex 4.037526e+01 1.725435e+02 1.421746e+02
         vertex 4.340900e+01 1.632749e+02 1.421746e+02
      endloop
   endfacet
   facet normal 0.000000e+00 0.000000e+00 1.000000e+00
      outer loop
         vertex 7.989396e+01 1.779536e+02 1.421746e+02
         vertex 4.340900e+01 1.632749e+02 1.421746e+02
         vertex 8.232176e+01 1.724526e+02 1.421746e+02
      endloop
   endfacet
   facet normal 0.000000e+00 0.000000e+00 1.000000e+00
      outer loop
         vertex 8.232176e+01 1.724526e+02 1.421746e+02
         vertex 4.340900e+01 1.632749e+02 1.421746e+02
         vertex 8.435489e+01 1.666595e+02 1.421746e+02
      endloop
   endfacet
   facet normal 0.000000e+00 -0.000000e+00 1.000000e+00
      outer loop
         vertex 4.936698e+01 1.319794e+02 1.421746e+02
         vertex 8.822460e+01 1.409314e+02 1.421746e+02
         vertex 4.832042e+01 1.408078e+02 1.421746e+02
      endloop
   endfacet
   facet normal 0.000000e+00 0.000000e+00 1.000000e+00
      outer loop
         vertex 4.832042e+01 1.408078e+02 1.421746e+02
         vertex 8.822460e+01 1.409314e+02 1.421746e+02
         vertex 8.793012e+01 1.476346e+02 1.421746e+02
      endloop
   endfacet
   facet normal 0.000000e+00 -0.000000e+00 1.000000e+00
      outer loop
         vertex 4.832042e+01 1.408078e+02 1.421746e+02
         vertex 8.793012e+01 1.476346e+02 1.421746e+02
         vertex 4.704005e+01 1.486117e+02 1.421746e+02
      endloop
   endfacet
   facet normal -0.000000e+00 0.000000e+00 1.000000e+00
      outer loop
         vertex 4.704005e+01 1.486117e+02 1.421746e+02
         vertex 8.793012e+01 1.476346e+02 1.421746e+02
         vertex 8.717578e+01 1.542336e+02 1.421746e+02
      endloop
   endfacet
   facet normal 0.000000e+00 0.000000e+00 1.000000e+00
      outer loop
         vertex 4.704005e+01 1.486117e+02 1.421746e+02
         vertex 8.717578e+01 1.542336e+02 1.421746e+02
         vertex 8.597839e+01 1.605821e+02 1.421746e+02
      endloop
   endfacet
   facet normal 0.000000e+00 0.000000e+00 1.000000e+00
      outer loop
         vertex 7.708406e+01 1.831592e+02 1.421746e+02
         vertex 7.390157e+01 1.880684e+02 1.421746e+02
         vertex 4.037526e+01 1.725435e+02 1.421746e+02
      endloop
   endfacet
   facet normal 0.000000e+00 0.000000e+00 1.000000e+00
      outer loop
         vertex 4.037526e+01 1.725435e+02 1.421746e+02
         vertex 7.390157e+01 1.880684e+02 1.421746e+02
         vertex 7.039257e+01 1.926344e+02 1.421746e+02
      endloop
   endfacet
   facet normal 0.000000e+00 -0.000000e+00 1.000000e+00
      outer loop
         vertex 4.037526e+01 1.725435e+02 1.421746e+02
         vertex 7.039257e+01 1.926344e+02 1.421746e+02
         vertex 3.543121e+01 1.861650e+02 1.421746e+02
      endloop
   endfacet
   facet normal 0.000000e+00 0.000000e+00 1.000000e+00
      outer loop
         vertex 7.039257e+01 1.926344e+02 1.421746e+02
         vertex 6.648362e+01 1.969574e+02 1.421746e+02
         vertex 3.543121e+01 1.861650e+02 1.421746e+02
      endloop
   endfacet
   facet normal 0.000000e+00 0.000000e+00 1.000000e+00
      outer loop
         vertex 3.543121e+01 1.861650e+02 1.421746e+02
         vertex 6.648362e+01 1.969574e+02 1.421746e+02
         vertex 6.220939e+01 2.009878e+02 1.421746e+02
      endloop
   endfacet
   facet normal 0.000000e+00 -0.000000e+00 1.000000e+00
      outer loop
         vertex 3.543121e+01 1.861650e+02 1.421746e+02
         vertex 6.220939e+01 2.009878e+02 1.421746e+02
         vertex 3.165723e+01 1.967069e+02 1.421746e+02
      endloop
   endfacet
   facet normal 0.000000e+00 -0.000000e+00 1.000000e+00
      outer loop
         vertex 5.102508e+01 1.077765e+02 1.421746e+02
         vertex 8.627240e+01 1.195301e+02 1.421746e+02
         vertex 5.022233e+01 1.216672e+02 1.421746e+02
      endloop
   endfacet
   facet normal -0.000000e+00 0.000000e+00 1.000000e+00
      outer loop
         vertex 5.022233e+01 1.216672e+02 1.421746e+02
         vertex 8.627240e+01 1.195301e+02 1.421746e+02
         vertex 8.740682e+01 1.267718e+02 1.421746e+02
      endloop
   endfacet
   facet normal 0.000000e+00 -0.000000e+00 1.000000e+00
      outer loop
         vertex 5.022233e+01 1.216672e+02 1.421746e+02
         vertex 8.740682e+01 1.267718e+02 1.421746e+02
         vertex 4.936698e+01 1.319794e+02 1.421746e+02
      endloop
   endfacet
   facet normal -0.000000e+00 0.000000e+00 1.000000e+00
      outer loop
         vertex 4.936698e+01 1.319794e+02 1.421746e+02
         vertex 8.740682e+01 1.267718e+02 1.421746e+02
         vertex 8.805634e+01 1.339233e+02 1.421746e+02
      endloop
   endfacet
   facet normal 0.000000e+00 0.000000e+00 1.000000e+00
      outer loop
         vertex 4.936698e+01 1.319794e+02 1.421746e+02
         vertex 8.805634e+01 1.339233e+02 1.421746e+02
         vertex 8.822460e+01 1.409314e+02 1.421746e+02
      endloop
   endfacet
   facet normal 0.000000e+00 0.000000e+00 1.000000e+00
      outer loop
         vertex 6.220939e+01 2.009878e+02 1.421746e+02
         vertex 5.756537e+01 2.047255e+02 1.421746e+02
         vertex 3.165723e+01 1.967069e+02 1.421746e+02
      endloop
   endfacet
   facet normal 0.000000e+00 0.000000e+00 1.000000e+00
      outer loop
         vertex 3.165723e+01 1.967069e+02 1.421746e+02
         vertex 5.756537e+01 2.047255e+02 1.421746e+02
         vertex 5.254369e+01 2.081689e+02 1.421746e+02
      endloop
   endfacet
   facet normal 0.000000e+00 -0.000000e+00 1.000000e+00
      outer loop
         vertex 3.165723e+01 1.967069e+02 1.421746e+02
         vertex 5.254369e+01 2.081689e+02 1.421746e+02
         vertex 2.905306e+01 2.047731e+02 1.421746e+02
      endloop
   endfacet
   facet normal 0.000000e+00 0.000000e+00 1.000000e+00
      outer loop
         vertex 2.905306e+01 2.047731e+02 1.421746e+02
         vertex 5.254369e+01 2.081689e+02 1.421746e+02
         vertex 4.713351e+01 2.113141e+02 1.421746e+02
      endloop
   endfacet
   facet normal 0.000000e+00 -0.000000e+00 1.000000e+00
      outer loop
         vertex 2.905306e+01 2.047731e+02 1.421746e+02
         vertex 4.713351e+01 2.113141e+02 1.421746e+02
         vertex 2.705690e+01 2.120380e+02 1.421746e+02
      endloop
   endfacet
   facet normal 0.000000e+00 -0.000000e+00 1.000000e+00
      outer loop
         vertex 5.169283e+01 8.946460e+01 1.421746e+02
         vertex 7.707068e+01 9.093688e+01 1.421746e+02
         vertex 5.102508e+01 1.077765e+02 1.421746e+02
      endloop
   endfacet
   facet normal 0.000000e+00 0.000000e+00 1.000000e+00
      outer loop
         vertex 5.102508e+01 1.077765e+02 1.421746e+02
         vertex 7.707068e+01 9.093688e+01 1.421746e+02
         vertex 8.003207e+01 9.789219e+01 1.421746e+02
      endloop
   endfacet
   facet normal 0.000000e+00 -0.000000e+00 1.000000e+00
      outer loop
         vertex 8.003207e+01 9.789219e+01 1.421746e+02
         vertex 8.256993e+01 1.050231e+02 1.421746e+02
         vertex 5.102508e+01 1.077765e+02 1.421746e+02
      endloop
   endfacet
   facet normal -0.000000e+00 0.000000e+00 1.000000e+00
      outer loop
         vertex 5.102508e+01 1.077765e+02 1.421746e+02
         vertex 8.256993e+01 1.050231e+02 1.421746e+02
         vertex 8.465641e+01 1.122586e+02 1.421746e+02
      endloop
   endfacet
   facet normal 0.000000e+00 0.000000e+00 1.000000e+00
      outer loop
         vertex 5.102508e+01 1.077765e+02 1.421746e+02
         vertex 8.465641e+01 1.122586e+02 1.421746e+02
         vertex 8.627240e+01 1.195301e+02 1.421746e+02
      endloop
   endfacet
   facet normal 0.000000e+00 -0.000000e+00 1.000000e+00
      outer loop
         vertex 6.601753e+01 7.176356e+01 1.421746e+02
         vertex 7.002322e+01 7.781823e+01 1.421746e+02
         vertex 5.169283e+01 8.946460e+01 1.421746e+02
      endloop
   endfacet
   facet normal 0.000000e+00 0.000000e+00 1.000000e+00
      outer loop
         vertex 5.169283e+01 8.946460e+01 1.421746e+02
         vertex 7.002322e+01 7.781823e+01 1.421746e+02
         vertex 7.372144e+01 8.422610e+01 1.421746e+02
      endloop
   endfacet
   facet normal -0.000000e+00 0.000000e+00 1.000000e+00
      outer loop
         vertex 5.169283e+01 8.946460e+01 1.421746e+02
         vertex 7.372144e+01 8.422610e+01 1.421746e+02
         vertex 7.707068e+01 9.093688e+01 1.421746e+02
      endloop
   endfacet
   facet normal 0.000000e+00 0.000000e+00 1.000000e+00
      outer loop
         vertex 4.713351e+01 2.113141e+02 1.421746e+02
         vertex 4.132139e+01 2.141551e+02 1.421746e+02
         vertex 2.705690e+01 2.120380e+02 1.421746e+02
      endloop
   endfacet
   facet normal 0.000000e+00 0.000000e+00 1.000000e+00
      outer loop
         vertex 2.705690e+01 2.120380e+02 1.421746e+02
         vertex 4.132139e+01 2.141551e+02 1.421746e+02
         vertex 3.509168e+01 2.166830e+02 1.421746e+02
      endloop
   endfacet
   facet normal 0.000000e+00 -0.000000e+00 1.000000e+00
      outer loop
         vertex 2.705690e+01 2.120380e+02 1.421746e+02
         vertex 3.509168e+01 2.166830e+02 1.421746e+02
         vertex 2.560297e+01 2.187069e+02 1.421746e+02
      endloop
   endfacet
   facet normal -0.000000e+00 0.000000e+00 1.000000e+00
      outer loop
         vertex 2.560297e+01 2.187069e+02 1.421746e+02
         vertex 3.509168e+01 2.166830e+02 1.421746e+02
         vertex 2.842686e+01 2.188866e+02 1.421746e+02
      endloop
   endfacet
   facet normal 0.000000e+00 -0.000000e+00 1.000000e+00
      outer loop
         vertex 2.560297e+01 2.187069e+02 1.421746e+02
         vertex 2.842686e+01 2.188866e+02 1.421746e+02
         vertex 2.541591e+01 2.197328e+02 1.421746e+02
      endloop
   endfacet
   facet normal 0.000000e+00 -0.000000e+00 1.000000e+00
      outer loop
         vertex 5.249270e+01 5.600671e+01 1.421746e+02
         vertex 5.725265e+01 6.086956e+01 1.421746e+02
         vertex 5.169283e+01 8.946460e+01 1.421746e+02
      endloop
   endfacet
   facet normal 0.000000e+00 0.000000e+00 1.000000e+00
      outer loop
         vertex 5.169283e+01 8.946460e+01 1.421746e+02
         vertex 5.725265e+01 6.086956e+01 1.421746e+02
         vertex 6.174664e+01 6.610318e+01 1.421746e+02
      endloop
   endfacet
   facet normal 0.000000e+00 0.000000e+00 1.000000e+00
      outer loop
         vertex 5.169283e+01 8.946460e+01 1.421746e+02
         vertex 6.174664e+01 6.610318e+01 1.421746e+02
         vertex 6.601753e+01 7.176356e+01 1.421746e+02
      endloop
   endfacet
endsolid